<?xml version="1.0" encoding="utf-8"?>
<!-- Generator: Adobe Illustrator 22.1.0, SVG Export Plug-In . SVG Version: 6.00 Build 0)  -->
<svg version="1.1" id="Calque_1" xmlns="http://www.w3.org/2000/svg" xmlns:xlink="http://www.w3.org/1999/xlink" x="0px" y="0px"
	 viewBox="0 0 264 258" enable-background="new 0 0 264 258" xml:space="preserve">
<g>
	<g>
		<path fill="#8BA22D" d="M31.496,114.978c3.339,6.301,8.868,11.498,14.337,15.983c4.531,3.717,9.469,6.64,15.188,8.043
			c8.084,1.982,21.351,2.126,20.558-9.459c-0.096-1.4-1.427-1.834-2.448-1.463c-0.417-0.292-0.956-0.423-1.571-0.238
			c-5.431,1.637-10.772,1.149-15.227-2.532c-4.142-3.422-6.918-8.374-9.356-13.076c-2.231-4.302-4.236-8.719-6.597-12.953
			c-2.058-3.692-4.67-8.4-8.935-9.81c-4.801-1.587-10.298,1.766-10.971,6.752c-0.379,2.807,0.415,5.717,1.115,8.416
			C28.517,108.22,29.763,111.708,31.496,114.978z"/>
		<path fill="#BCB134" d="M22.297,126.347c5.121,4.465,11.013,8.14,17.199,10.942c5.57,2.523,11.936,5.007,18.096,5.363
			c6.608,0.381,22.545-3.03,20.074-12.499c-0.429-1.645-2.322-1.346-3.096-0.204c-0.145,0.005-0.293,0.024-0.446,0.065
			c-6.091,1.616-12.836,2.756-18.949,0.618c-7.287-2.549-11.975-9.571-16.329-15.545c-2.28-3.129-4.354-6.333-6.235-9.716
			c-1.438-2.587-2.93-5.184-5.214-7.128c-3.952-3.364-10.801-3.346-14.899-0.188C2.573,105.704,16.308,121.126,22.297,126.347z"/>
		<path fill="#8BA22D" d="M20.543,144.608c8.494,6.387,19.734,9.67,30.331,8.707c5.392-0.49,10.912-2.036,15.88-4.157
			c5.298-2.262,8.415-6.541,13.029-9.725c1.634-1.128,0.341-3.405-1.264-3.258c-0.355-0.137-0.769-0.16-1.228,0.007
			c-6.401,2.338-13.27,3.59-20.082,2.723c-7.074-0.901-13.071-4.34-18.908-8.245c-6.998-4.681-15.441-13.987-24.564-8.79
			c-3.733,2.127-4.694,6.301-3.726,10.282C11.321,137.543,16.315,141.429,20.543,144.608z"/>
	</g>
	<path fill="#603E4F" d="M171.481,197.159c1.947,0.245,3.901,0.669,5.865,0.833c-0.538-3.645-1.429-7.245-1.839-10.916
		c-0.483-4.325-0.119-9.758-1.787-13.813c-1.323-3.218,3.69-5.219,5.01-2.008c1.722,4.187,1.512,9.286,1.98,13.735
		c0.41,3.896,1.298,7.73,1.884,11.594c2.058-0.271,4.118-0.549,6.188-0.663c2.596-0.143,5.187,0.051,7.775-0.255
		c3.449-0.407,4.057,4.955,0.604,5.362c-2.589,0.305-5.179,0.105-7.775,0.255c-1.266,0.073-2.527,0.208-3.787,0.36
		c1.062,0.926,2.117,1.859,3.129,2.839c1.862,1.803,6.462,6.304,8.807,8.017c2.792,2.04,0.92,6.52-2.185,4.935
		c-2.602-1.328-7.193-5.826-9.159-7.903c-0.995-1.051-2.068-2.024-3.158-2.98c0.453,4.634,0.871,9.271,1.363,13.901
		c0.367,3.452-4.995,4.063-5.362,0.604c-0.627-5.901-1.133-11.813-1.747-17.716c-2.225-0.169-4.416-0.57-6.649-0.851
		C167.193,202.057,168.031,196.725,171.481,197.159z"/>
	<path fill="#603E4F" d="M137.565,206.793c1.947,0.245,3.901,0.669,5.865,0.833c-0.538-3.645-1.429-7.245-1.839-10.916
		c-0.483-4.325-0.119-9.758-1.786-13.813c-1.323-3.217,3.69-5.219,5.01-2.008c1.722,4.187,1.512,9.286,1.98,13.735
		c0.41,3.896,1.298,7.73,1.884,11.593c2.058-0.27,4.118-0.549,6.188-0.663c2.596-0.143,5.187,0.051,7.775-0.255
		c3.449-0.407,4.057,4.955,0.604,5.362c-2.589,0.305-5.178,0.105-7.775,0.255c-1.266,0.073-2.527,0.208-3.786,0.36
		c1.062,0.926,2.117,1.859,3.129,2.839c1.862,1.803,6.462,6.304,8.807,8.017c2.792,2.04,0.92,6.52-2.185,4.935
		c-2.602-1.328-7.193-5.826-9.159-7.903c-0.995-1.051-2.069-2.024-3.159-2.98c0.454,4.634,0.871,9.271,1.363,13.901
		c0.367,3.452-4.995,4.063-5.362,0.604c-0.627-5.901-1.133-11.813-1.747-17.715c-2.225-0.169-4.416-0.57-6.65-0.851
		C133.278,211.691,134.115,206.359,137.565,206.793z"/>
	<g>
		<g>
			<path fill="#F9B761" d="M49.977,142.307c0.697,1.4,1.502,2.666,2.387,3.842c0.886,1.175,1.851,2.262,2.86,3.316
				c4.353,5.661,9.279,10.774,14.641,15.304c1.789,1.511,3.627,2.958,5.518,4.344c6.205,4.709,12.833,8.719,19.751,12.063
				c2.308,1.114,4.648,2.155,7.034,3.123c21.483,8.921,46.294,11.886,68.735,8.386c2.403-0.348,4.797-0.736,7.175-1.176
				c14.27-2.641,27.979-7.171,39.715-16.402c12.034-9.464,21.542-22.313,27.204-36.531c4.777-11.996,7.166-25.316,6.801-38.509
				c-0.073-2.639-0.255-5.272-0.541-7.884c-0.913-20.496-12.317-38.65-27.065-51.771c-1.804-1.563-3.686-3.017-5.634-4.361
				c-18.534-14.85-45.157-14.731-66.614-5.484c-2.068,0.877-4.1,1.841-6.08,2.896c-2.266,1.141-4.478,2.386-6.635,3.73
				c-10.784,6.722-20.193,15.934-27.442,26.868c-1.573,1.967-3.122,3.952-4.66,5.943C99.436,79.958,91.995,90.07,83.021,98.83
				c-1.868,1.68-3.783,3.306-5.717,4.91c-7.736,6.415-15.786,12.472-22.335,19.911c-1.157,1.261-1.958,2.686-2.448,4.192
				C49.134,131.781,47.688,137.712,49.977,142.307z"/>
		</g>
	</g>
	<g>
		<g>
			<path fill="#C7C557" d="M52.522,127.844c0.49-1.507,1.291-2.931,2.448-4.192c6.548-7.439,14.598-13.497,22.335-19.911
				c1.934-1.604,3.848-3.23,5.717-4.91c8.974-8.76,16.415-18.872,24.107-28.828c1.539-1.991,3.087-3.976,4.66-5.943
				c7.249-10.934,16.658-20.145,27.442-26.868c2.157-1.344,4.369-2.588,6.635-3.73c1.98-1.055,4.012-2.019,6.08-2.896
				c21.457-9.246,48.08-9.365,66.614,5.484c1.948,1.344,3.83,2.799,5.634,4.361c14.748,13.122,26.151,31.275,27.065,51.771
				c0.286,2.612,0.468,5.246,0.541,7.884c0.062,2.247,0.038,4.497-0.058,6.744c-3.065-6.341-8.752-11.136-16.902-11.853
				c-10.401-0.915-17.197,5.105-22.793,13.14c-2.157,3.096-4.223,6.246-6.221,9.437c-1.569-8.671-4.772-16.825-11.549-22.867
				c-5.378-4.795-12.676-6.942-19.626-4.516c-6.151,2.147-11.117,6.978-14.764,12.238c-8.969,12.934-11.715,29.408-16.708,44.091
				c-2.618,7.699-5.804,15.143-10.157,22.029c-3.489,5.521-8.215,11.973-14.414,14.623c-3.752,1.604-8.074,2.331-12.419,2.751
				c-1.352-0.506-2.692-1.033-4.02-1.585c-2.386-0.969-4.726-2.009-7.034-3.123c-6.919-3.344-13.546-7.355-19.751-12.063
				c-1.89-1.387-3.728-2.833-5.518-4.344c-5.361-4.53-10.287-9.642-14.641-15.304c-1.009-1.054-1.975-2.141-2.86-3.317
				c-0.886-1.175-1.69-2.442-2.387-3.841C47.688,137.712,49.134,131.781,52.522,127.844z"/>
		</g>
	</g>
	<path fill="#544842" d="M206.624,84.168c0.457-1.266,1.406-1.993,2.457-2.273c0.335-0.214,0.738-0.378,1.223-0.467
		c4.196-0.767,8.217,0.136,12.391,0.625c4.32,0.507,9.053,0.364,12.981,2.517c2.746,1.505,4.814,4.282,3.37,7.438
		c-1.147,2.508-3.943,3.852-6.33,4.898c-6.008,2.633-13.127,4.742-19.668,5.014C203.804,102.305,204.548,89.915,206.624,84.168z"/>
	<path fill="#544842" d="M187.721,63.365c3.891,1.397,4.546,7.917,3.486,11.996c-0.086,0.538-0.235,1.065-0.486,1.571
		c-1.003,2.018-3.451,2.587-5.397,1.584c-2.009-1.036-2.817-3.341-3.214-5.421C181.431,69.536,181.984,61.306,187.721,63.365z"/>
	<path fill="#544842" d="M224.379,60.534c3.891,1.397,4.546,7.917,3.486,11.996c-0.085,0.538-0.235,1.065-0.486,1.571
		c-1.003,2.018-3.451,2.587-5.397,1.584c-2.009-1.036-2.817-3.341-3.214-5.421C218.089,66.705,218.643,58.475,224.379,60.534z"/>
	<g>
		<path fill="#8BA22D" d="M93.985,188.087c4.049-2.101,7.376-6.191,10.014-9.738c3.159-4.247,5.68-8.888,7.692-13.69
			c0.628-1.499,1.222-3.013,1.799-4.532c-2.488-2.021-4.684-4.395-6.541-6.888c-0.648-0.87-1.296-1.751-1.941-2.636
			c-1.785,1.967-3.642,3.874-5.425,5.769c-3.857,4.1-7.912,8.031-11.703,12.188c-2.864,3.142-6.124,6.476-6.633,10.714
			C80.392,186.389,86.896,191.765,93.985,188.087z"/>
		<path fill="#F9B761" d="M71.347,179.515c9.487,5.941,18.201-9.082,22.674-14.912c3.587-4.676,7.569-9.306,10.668-14.361
			c-3.187-4.397-6.308-8.933-9.094-13.528c-0.858-1.415-1.66-2.87-2.404-4.351c-1.47,2.04-2.891,4.117-4.337,6.173
			c-4.042,5.747-8.495,11.231-13.068,16.565c-3.397,3.962-9.475,7.886-10.093,13.521C65.243,172.726,67.918,177.368,71.347,179.515z
			"/>
		<path fill="#8BA22D" d="M67.419,162.943c4.417-1.005,8.445-4.325,11.691-7.278c3.887-3.536,7.202-7.678,10.032-12.144
			c2.036-3.212,3.908-6.55,5.786-9.88c-1.956-3.679-3.54-7.543-4.528-11.515c-3.607,3.447-7.949,6.21-11.998,9.026
			c-4.562,3.172-9.295,6.106-13.8,9.358c-3.405,2.458-7.238,5-8.467,9.32C54.073,157.082,59.686,164.702,67.419,162.943z"/>
		<path fill="#F9B761" d="M49.103,144.064c6.824,8.224,19.218-2.789,25.017-6.736c5.168-3.518,10.769-6.831,15.389-11.067
			c0.544-0.499,1.064-1.02,1.569-1.555c-1.513-5.036-2.049-10.316-1.032-15.677c0.576-3.039,1.589-5.83,2.952-8.402
			c-0.779,0.555-1.511,1.155-2.157,1.722c-0.18,0.158-0.312,0.334-0.42,0.517c-1.582,1.14-3.295,2.113-4.907,3.213
			c-2.826,1.929-5.536,4.029-8.282,6.069c-5.384,4.001-11.062,7.641-16.802,11.108c-4.264,2.576-10.949,4.315-13.195,9.239
			C45.601,136.083,46.638,141.092,49.103,144.064z"/>
		<path fill="#BCB134" d="M112.69,169.78c3.506-0.754,6.447-4.245,8.922-6.628c4.095-3.944,7.853-8.231,11.099-12.905
			c3.053-4.397,5.304-9.261,7.293-14.215c0.74-1.842,1.331-3.727,1.876-5.625c0.921-2.257,1.724-4.56,2.341-6.916
			c0.28-1.071,0.499-2.156,0.674-3.249c0.022-0.061,0.041-0.122,0.063-0.183c0.134-0.363,0.155-0.706,0.107-1.024
			c0.373-2.854,0.489-5.752,0.616-8.616c0.182-4.08,0.04-8.16-1.169-12.093c-1.977-6.431-6.666-12.577-12.485-15.99
			c-6.562-3.849-12.847-2.389-19.137,1.184c-4.685,2.661-8.99,5.917-13.373,9.034c-3.778,2.686-7.67,5.294-10.821,8.735
			c-5.561,6.073-11.148,5.016-8.737,12.62c3.13,9.871,11.568,28.597,17.056,37.437c2.801,4.513,5.87,8.845,8.825,13.257
			C107.517,167.108,109.052,170.562,112.69,169.78z"/>
	</g>
</g>
</svg>
