<?xml version="1.0" encoding="utf-8"?>
<!-- Generator: Adobe Illustrator 22.1.0, SVG Export Plug-In . SVG Version: 6.00 Build 0)  -->
<svg version="1.1" id="Calque_1" xmlns="http://www.w3.org/2000/svg" xmlns:xlink="http://www.w3.org/1999/xlink" x="0px" y="0px"
	 viewBox="0 0 264 258" enable-background="new 0 0 264 258" xml:space="preserve">
<g>
	<g>
		<g>
			<path fill="#773311" d="M259,119.646c0,0-0.535-8.285-2.128-9.724c-0.698-0.631-1.526-1.116-2.174-1.799
				c-1.498-1.582-1.861-4.04-3.501-5.475c-13.912-4.515-30.214-6.762-44.585-4.042c-14.371,2.72-28.121,8.039-41.496,13.959
				c-24.522,10.854-48.106,23.828-70.403,38.729c-5.017,3.353-10.02,6.831-15.615,9.091c-4.168,1.684-8.975,2.937-11.414,6.712
				c-2.447,3.787-1.599,8.733-0.663,13.143c0.255,1.201,0.545,2.471,1.402,3.351c0.755,0.775,1.833,1.125,2.865,1.446
				c25.423,7.918,51.03,15.247,76.792,21.98c0.861,0.225,1.76,0.451,2.631,0.266c1.005-0.213,1.812-0.935,2.569-1.629
				c28.96-26.525,60.04-50.736,92.844-72.327C252.603,129.064,259,119.646,259,119.646z"/>
		</g>
		<g>
			<g>
				<path fill="#935B41" d="M153.06,181.594c3.196-2.081,6.256-4.299,9.354-6.523c2.77-1.989,5.777-3.936,7.993-6.556
					c0.335-0.396,0.03-1.173-0.559-0.961c-6.567,2.367-12.707,8.092-17.736,12.811C151.471,180.967,152.308,182.084,153.06,181.594
					L153.06,181.594z"/>
			</g>
			<g>
				<path fill="#935B41" d="M154.401,186.43c3.723-2.523,7.483-4.94,11.128-7.583c2.85-2.066,6.501-3.989,8.433-6.98
					c0.328-0.508-0.213-1.122-0.757-0.985c-3.44,0.864-6.454,3.803-9.243,5.933c-3.586,2.739-6.893,5.713-10.257,8.712
					C153.222,185.957,153.857,186.798,154.401,186.43L154.401,186.43z"/>
			</g>
			<g>
				<path fill="#935B41" d="M183.421,159.357c3.297-1.727,6.397-3.616,9.395-5.827c2.408-1.775,5.315-3.576,6.952-6.11
					c0.378-0.585-0.267-1.562-0.974-1.266c-2.856,1.197-5.276,3.653-7.75,5.495c-2.821,2.1-5.615,4.227-8.413,6.357
					C181.848,158.602,182.504,159.837,183.421,159.357L183.421,159.357z"/>
			</g>
			<g>
				<path fill="#935B41" d="M184.656,163.28c3.126-1.905,6.098-3.929,8.994-6.169c2.509-1.941,5.525-3.955,7.217-6.683
					c0.283-0.456-0.259-0.868-0.677-0.677c-2.895,1.319-5.349,3.924-7.81,5.916c-2.79,2.256-5.596,4.497-8.4,6.736
					C183.478,162.802,184.122,163.605,184.656,163.28L184.656,163.28z"/>
			</g>
			<g>
				<path fill="#935B41" d="M210.644,137.056c2.942-1.301,5.699-2.796,8.254-4.763c1.892-1.457,4.375-3.197,5.061-5.586
					c0.119-0.415-0.305-0.912-0.746-0.746c-2.242,0.844-3.877,3.029-5.689,4.55c-2.367,1.986-4.885,3.83-7.54,5.415
					C209.243,136.367,209.89,137.389,210.644,137.056L210.644,137.056z"/>
			</g>
			<g>
				<path fill="#935B41" d="M213.954,140.652c2.367-1.805,4.663-3.613,6.867-5.617c2.077-1.888,4.913-3.776,6.191-6.316
					c0.255-0.507-0.184-1.339-0.829-1.079c-2.477,0.999-4.333,3.26-6.263,5.053c-2.382,2.211-4.597,4.496-6.778,6.906
					C212.662,140.129,213.318,141.137,213.954,140.652L213.954,140.652z"/>
			</g>
			<g>
				<path fill="#935B41" d="M238.734,117.356c1.975-1.198,3.757-2.49,5.471-4.048c1.492-1.356,3.504-2.751,4.149-4.728
					c0.183-0.561-0.407-1.135-0.962-0.962c-1.886,0.588-3.256,2.407-4.658,3.728c-1.698,1.599-3.253,3.247-4.754,5.032
					C237.547,116.893,238.093,117.745,238.734,117.356L238.734,117.356z"/>
			</g>
			<g>
				<path fill="#935B41" d="M238.288,121.917c2.498-1.723,4.963-3.451,7.275-5.421c2.197-1.871,5.018-3.789,6.371-6.387
					c0.204-0.392-0.149-1.054-0.649-0.844c-2.521,1.06-4.45,3.296-6.465,5.095c-2.456,2.193-4.762,4.509-7.093,6.831
					C237.365,121.551,237.845,122.223,238.288,121.917L238.288,121.917z"/>
			</g>
		</g>
		<g>
			<path fill="#64180B" d="M149.857,190.128c1.019-2.439,1.194-5.221,0.489-7.769c-0.263-0.952-0.648-1.939-0.405-2.896
				c0.223-0.875,0.927-1.532,1.607-2.127c6.034-5.274,12.76-9.756,19.95-13.294c1.7-0.836,3.819-1.597,5.381-0.525
				c0.979,0.672,1.418,1.879,2.175,2.794c0.757,0.915,2.296,1.478,3.066,0.575c-1.267-4.713-2.178-10.633,1.622-13.695
				c2.166-1.746,5.22-1.899,7.621-3.303c2.434-1.424,3.952-3.972,5.955-5.956c2.003-1.985,5.159-3.44,7.59-2.013
				c1.435,0.843,3.492,2.432,4.269,0.96c-0.265-2.697-0.529-5.393-0.794-8.09c4.126-3.171,8.252-6.342,12.379-9.513
				c2.881-2.214,7.079-4.426,9.8-2.017c1.186,1.05,2.485,2.964,3.808,2.094c-1.53-5.214,2.41-10.305,6.074-14.318
				c2.779-3.045,5.559-6.091,8.338-9.136c-13.36-4.003-28.621-5.856-42.169-3.291c-14.371,2.72-28.121,8.039-41.496,13.959
				c-24.522,10.854-48.106,23.828-70.403,38.729c-5.017,3.353-10.02,6.831-15.615,9.091c-3.889,1.571-8.31,2.795-10.869,6.015
				c1.248,0.807,2.669,1.342,4.079,1.84C97.649,177.201,123.571,184.518,149.857,190.128z"/>
		</g>
		<g>
			<path fill="#935B41" d="M256.679,109.769c-5.801,4.76-11.602,9.519-17.404,14.278c-5.814,4.77-11.629,9.54-17.578,14.14
				c-3.676,2.842-7.411,5.625-11.409,7.991c-3.975,2.353-8.234,4.313-11.728,7.335c-2.307,1.995-4.217,4.401-6.307,6.623
				c-3.861,4.104-8.335,7.576-12.788,11.029c-6.458,5.008-12.916,10.016-19.374,15.024c-2.813,2.181-5.644,4.375-8.797,6.026
				c-0.822,0.43-1.716,0.872-2.157,1.688c-0.499,0.923-0.274,2.051-0.075,3.081c0.657,3.402,0.88,6.884,0.689,10.344
				c0.322,0.022,0.643,0.021,0.96-0.046c1.005-0.213,1.812-0.935,2.569-1.629c28.96-26.525,60.04-50.736,92.844-72.327
				c6.478-4.264,12.874-13.682,12.874-13.682s-0.535-8.285-2.128-9.724C256.811,109.867,256.742,109.822,256.679,109.769z"/>
		</g>
		<g>
			<g>
				<path fill="#3C120E" d="M146.941,149.429c1.915,0.695,4.065,1.385,5.928,0.562c0.922-0.408,1.653-1.144,2.496-1.697
					c3.398-2.23,7.989-1.202,11.81-2.586c2.803-1.015,5.029-3.273,7.849-4.24c1.825-0.626,3.798-0.674,5.662-1.175
					c1.863-0.501,3.756-1.645,4.279-3.502c-13.01-7.913-29.637-7.184-43.663-12.84c-8.493,4.35-16.85,8.96-25.06,13.821
					c3.122,1.63,6.452,2.864,9.77,4.067C132.989,144.369,139.965,146.899,146.941,149.429z"/>
			</g>
			<g>
				<path fill="#3C120E" d="M193.725,134.978c0.668-0.581,0.975-1.465,1.489-2.185c1.01-1.413,2.731-2.096,4.349-2.724
					c6.242-2.425,12.382-5.11,18.401-8.044c0.785-0.383,1.698-0.996,1.582-1.862c-0.075-0.557-0.567-0.953-1.033-1.267
					c-3.595-2.418-7.867-3.576-12.053-4.695c-9.19-2.457-18.381-4.913-27.571-7.37c-4.639,1.794-9.23,3.724-13.773,5.734
					c-4.899,2.169-9.749,4.445-14.571,6.781c12.51,5.729,25.245,10.967,38.18,15.657
					C190.374,135.601,192.403,136.129,193.725,134.978z"/>
			</g>
			<g>
				<path fill="#3C120E" d="M114.416,171.118c1.624-1.402,2.107-3.755,3.598-5.297c3.393-3.509,9.618-1.079,13.95-3.328
					c3.56-1.848,5.57-6.713,9.578-6.854c1.294-0.046,3.2-0.011,3.212-1.306c-1.692-2.179-4.512-3.083-7.157-3.871
					c-9.46-2.818-18.92-5.636-28.38-8.453c-4.888,3.011-9.731,6.094-14.504,9.283c-5.017,3.353-10.02,6.831-15.615,9.091
					c-0.752,0.304-1.524,0.595-2.299,0.89c9.414,4.496,19.284,8.036,29.414,10.53C108.988,172.487,112.254,172.985,114.416,171.118z
					"/>
			</g>
		</g>
		<g>
			<path fill="#773311" d="M110.623,175.671c3.804,3.027,8.031,4.589,12.758,5.636c4.778,1.059,10.53,3.189,15.402,2.887
				c0.652-0.04,1.063-0.839,0.553-1.335c-3.012-2.927-7.746-3.252-11.719-4.021c-5.458-1.055-10.855-2.159-15.911-4.571
				C110.862,173.865,109.772,174.994,110.623,175.671L110.623,175.671z"/>
		</g>
	</g>
	<g>
		<g>
			<path fill="#773311" d="M257.157,94.722c0.168-0.954,0.451-1.928,0.242-2.873c-0.233-1.049-1.031-1.871-1.838-2.58
				c-10.676-9.377-26.681-8.289-40.773-6.47c-55.231,7.129-118.522,16.593-172.722,29.386c-0.863,10.211-2.301,20.372-4.307,30.421
				c10.887,1.164,20.76,6.675,30.287,12.071c8.309,4.706,16.618,9.413,24.927,14.119c1.038,0.588,2.119,1.189,3.308,1.281
				c1.388,0.107,2.722-0.495,3.985-1.082c38.986-18.119,78.283-35.611,118.332-51.237c13.236-5.164,26.55-10.123,39.864-15.082
				C257.148,100.272,256.68,97.418,257.157,94.722z"/>
		</g>
		<g>
			<g>
				<path fill="#935B41" d="M107.83,144.671c4.135-1.466,8.088-3.219,12.075-5.057c4.458-2.056,9.428-3.814,13.441-6.65
					c0.503-0.356,0.215-1.196-0.434-1.028c-4.272,1.101-8.261,3.412-12.255,5.26c-4.484,2.074-8.909,4.157-13.177,6.645
					C107.047,144.091,107.332,144.847,107.83,144.671L107.83,144.671z"/>
			</g>
			<g>
				<path fill="#935B41" d="M107.524,148.223c4.432-1.441,8.69-3.189,12.977-5.009c4.205-1.785,8.851-3.317,12.556-6.012
					c0.483-0.351,0.198-1.077-0.406-0.963c-4.223,0.797-8.272,2.966-12.196,4.68c-4.53,1.978-8.992,3.986-13.328,6.364
					C106.623,147.559,106.963,148.405,107.524,148.223L107.524,148.223z"/>
			</g>
			<g>
				<path fill="#935B41" d="M148.752,127.087c8.205-2.67,16.944-5.013,24.701-8.851c0.829-0.41,0.222-1.59-0.6-1.422
					c-8.469,1.724-16.714,5.704-24.462,9.42C147.916,126.461,148.251,127.25,148.752,127.087L148.752,127.087z"/>
			</g>
			<g>
				<path fill="#935B41" d="M149.531,131.268c9.007-3.023,19.47-6.425,27.446-11.608c0.522-0.339,0.194-1.153-0.424-1.007
					c-9.282,2.2-18.961,7.429-27.344,11.849C148.793,130.721,149.078,131.42,149.531,131.268L149.531,131.268z"/>
			</g>
			<g>
				<path fill="#935B41" d="M189.085,111.022c6.218-2.459,13.222-4.671,18.836-8.324c0.524-0.341,0.201-1.2-0.434-1.029
					c-6.476,1.747-12.801,5.489-18.772,8.478C188.238,110.386,188.576,111.223,189.085,111.022L189.085,111.022z"/>
			</g>
			<g>
				<path fill="#935B41" d="M188.629,114.193c7.122-1.792,15.889-5.125,21.733-9.587c0.486-0.371,0.236-1.233-0.443-1.05
					c-3.588,0.968-6.937,2.897-10.298,4.463c-3.797,1.769-7.649,3.41-11.251,5.562C188.043,113.776,188.259,114.286,188.629,114.193
					L188.629,114.193z"/>
			</g>
			<g>
				<path fill="#935B41" d="M227.541,98.373c6.658-2.779,14.559-4.655,20.683-8.462c0.428-0.266,0.129-0.833-0.323-0.766
					c-7.024,1.038-14.371,5.286-20.757,8.287C226.624,97.677,227.001,98.599,227.541,98.373L227.541,98.373z"/>
			</g>
		</g>
		<g>
			<path fill="#64180B" d="M103.341,145.128c1.687-1.994,4.143-3.142,6.519-4.229c8.08-3.699,16.159-7.399,24.239-11.098
				c0.7-0.32,1.434-0.648,2.203-0.608c2.975,0.155,3.628,5.173,6.584,5.545c2.213-2.673,2.256-6.905,0.099-9.622
				c11.161-3.587,22.323-7.174,33.484-10.761c0.811-0.261,1.693-0.522,2.499-0.245c1.665,0.573,3.086,3.216,4.402,2.047
				c-0.94-1.552-0.354-3.661,0.875-4.996c1.229-1.335,2.958-2.075,4.631-2.776c8.009-3.359,16.018-6.718,24.027-10.077
				c0.93-0.39,2.068-0.761,2.881-0.163c0.901,0.662,0.812,2.109,1.609,2.894c1.027,1.011,2.928,0.222,3.512-1.095
				c0.585-1.317,0.271-2.84-0.052-4.244c10.611-1.995,21.017-5.065,31.027-9.114c-10.471-6.425-24.535-5.405-37.091-3.785
				c-55.231,7.129-118.522,16.593-172.722,29.386c-0.418,4.95-0.978,9.887-1.666,14.806c20.693,8.455,41.387,16.909,62.08,25.364
				C100.97,150.222,101.653,147.122,103.341,145.128z"/>
		</g>
		<g>
			<path fill="#935B41" d="M257.157,94.722c0.168-0.954,0.451-1.928,0.242-2.873c-0.191-0.86-0.766-1.563-1.41-2.181
				c-19.422,7.21-38.617,15.017-57.801,22.84c-6.928,2.825-13.856,5.65-20.784,8.476c-5.592,2.28-11.195,4.566-16.532,7.393
				c-3.74,1.981-7.365,4.235-11.354,5.651c-1.68,0.596-3.41,1.038-5.114,1.56c-3.436,1.053-6.762,2.431-10.081,3.808
				c-10.098,4.187-20.197,8.374-30.296,12.56c-0.65,0.27-1.336,0.567-1.741,1.144c-0.339,0.483-0.429,1.092-0.51,1.676
				c-0.666,4.813-1.333,9.626-1.999,14.438c0.162-0.073,0.327-0.144,0.487-0.219c38.986-18.119,78.283-35.611,118.332-51.237
				c13.236-5.164,26.55-10.123,39.864-15.082C257.148,100.272,256.68,97.418,257.157,94.722z"/>
		</g>
		<g>
			<g>
				<path fill="#3C120E" d="M174.207,104.479c0.903,0.18,1.83-0.077,2.716-0.331c9.49-2.727,18.98-5.454,28.47-8.181
					c-4.437-3.386-8.873-6.771-13.309-10.157c-12.124,1.651-24.505,3.418-36.984,5.301c5.529,4.382,11.242,8.531,17.136,12.409
					C172.849,103.925,173.486,104.335,174.207,104.479z"/>
			</g>
			<g>
				<path fill="#3C120E" d="M128.362,118.711c1.792,0.166,3.328-1.148,4.808-2.172c8.909-6.163,21.519-3.298,31.137-8.281
					c-7.691-5.562-15.826-10.503-24.278-14.822c-13.5,2.136-27.023,4.422-40.385,6.859c8.764,5.358,17.345,11.015,25.708,16.979
					C126.269,117.927,127.241,118.606,128.362,118.711z"/>
			</g>
			<g>
				<path fill="#3C120E" d="M70.96,135.585c-0.636-1.758-1.018-3.608-1.131-5.474c11.681-8.074,27.473-5.821,41.041-10.01
					c-8.989-7.395-20.289-11.094-30.853-16.082c-12.978,2.562-25.704,5.274-37.952,8.165c-0.319,3.776-0.745,7.542-1.223,11.302
					c6.95,3.07,13.9,6.139,20.851,9.209C64.667,134.01,67.716,135.343,70.96,135.585z"/>
			</g>
		</g>
	</g>
	<g>
		<g>
			<path fill="#773311" d="M249.142,70.717c0,0-8.762-5.596-12.545-7.538c-10.355-5.316-20.71-10.633-31.066-15.949
				c-1.827-0.938-3.905-1.262-5.934-0.943c-7.996,1.258-20.731,2.745-27.161,3.927c-2.094,0.385-4.365,0.87-5.723,2.51
				c-0.855,1.032-1.322,2.492-2.543,3.045c-2.365,1.069-4.359-2.109-6.769-3.072c-1.136-0.454-2.404-0.393-3.625-0.316
				c-8.589,0.541-17.152,1.498-25.648,2.869c-5.14,0.829-11.187,2.601-12.665,7.594c-2.112,0.619-3.251-2.581-5.268-3.462
				c-1.034-0.452-2.223-0.238-3.33-0.016c-12.915,2.588-25.831,5.176-38.746,7.764c0.82,1.69-1.685,3.272-3.502,2.792
				c-1.817-0.48-3.246-1.954-5.063-2.43c-1.274-0.334-2.62-0.146-3.923,0.049c-13.761,2.058-27.435,4.698-40.974,7.909
				c-0.096,1.308-0.193,2.616-0.289,3.924c-1.816-0.049-3.632-0.099-5.448-0.148C7.298,84.982,5.737,91.427,8.558,96.7
				c2.499,4.671,7.711,7.043,12.268,9.743c7.13,4.224,13.36,9.959,18.159,16.716c70.092-13.652,140.184-27.303,210.276-40.954
				C251.17,78.404,249.142,70.717,249.142,70.717z"/>
		</g>
		<g>
			<path fill="#935B41" d="M184.564,81.85c-5.253,1.02-10.576,1.629-15.888,2.272c-42.961,5.201-85.64,12.726-127.789,22.532
				c-0.506,5.477-1.011,10.954-1.517,16.431c69.964-13.626,139.928-27.253,209.892-40.879c1.908-3.801-0.12-11.488-0.12-11.488
				s-0.262-0.167-0.687-0.437c-15.586,1.781-31.182,3.711-46.429,7.378C196.205,79.057,190.441,80.708,184.564,81.85z"/>
		</g>
		<g>
			<path fill="#64180B" d="M45.337,93.498c0.863-1.321,2.388-2.026,3.846-2.628c6.027-2.488,12.307-4.362,18.712-5.582
				c5.981-1.14,12.752-1.532,17.57,2.192c2.144,1.657,3.759,4.043,6.218,5.182c2.459,1.138,6.262-0.018,6.244-2.728
				c-0.006-0.899-0.441-1.797-0.221-2.668c0.286-1.135,1.522-1.709,2.621-2.112c9.065-3.318,18.578-5.411,28.198-6.205
				c4.884-0.403,10.283-0.311,14.023,2.856c1.004,0.85,1.874,1.913,3.081,2.436c1.683,0.73,3.836,0.138,4.91-1.349
				c1.074-1.487,0.957-3.717-0.265-5.085c12.461-1.587,24.923-3.174,37.384-4.762c3.789-0.483,8.869-0.146,9.791,3.56
				c2.065-1.326,3.086-4.083,2.382-6.434c13.836,1.253,27.912-0.311,41.156-4.499c-1.664-0.993-3.252-1.908-4.389-2.492
				c-10.355-5.316-20.71-10.633-31.066-15.949c-1.827-0.938-3.905-1.262-5.934-0.943c-7.997,1.258-20.731,2.745-27.162,3.927
				c-2.094,0.385-4.365,0.87-5.723,2.51c-0.855,1.032-1.322,2.492-2.543,3.045c-2.365,1.069-4.359-2.109-6.769-3.072
				c-1.136-0.454-2.404-0.393-3.625-0.316c-8.589,0.541-17.152,1.498-25.648,2.869c-5.14,0.829-11.187,2.601-12.665,7.594
				c-2.112,0.619-3.251-2.581-5.268-3.462c-1.034-0.452-2.223-0.238-3.33-0.016c-12.915,2.588-25.831,5.176-38.746,7.764
				c0.82,1.69-1.685,3.272-3.502,2.792c-1.817-0.48-3.246-1.954-5.063-2.43c-1.274-0.334-2.62-0.146-3.923,0.049
				c-13.761,2.058-27.435,4.698-40.974,7.909c-0.096,1.308-0.193,2.616-0.289,3.924c-1.148-0.031-2.295-0.062-3.443-0.093
				c11.391,8.049,22.186,16.939,32.251,26.595C46.771,103.394,42.949,97.155,45.337,93.498z"/>
		</g>
		<g>
			<g>
				<path fill="#935B41" d="M196.855,69.733c1.142,0.725,2.306,1.461,3.61,1.821c1.393,0.385,2.865,0.322,4.308,0.238
					c12.355-0.716,24.634-2.701,36.589-5.897c-1.799-1.079-3.542-2.089-4.764-2.716c-10.355-5.316-20.71-10.633-31.066-15.949
					c-1.827-0.938-3.905-1.262-5.934-0.943c-7.997,1.258-20.731,2.745-27.162,3.927c-0.816,0.15-1.658,0.318-2.464,0.561
					c6.014,5.652,13.075,10.187,20.071,14.63C192.313,66.849,194.584,68.291,196.855,69.733z"/>
			</g>
			<g>
				<path fill="#935B41" d="M150.9,77.402c1.265,1.165,2.355,2.68,4.006,3.161c1.019,0.297,2.108,0.148,3.158-0.002
					c12.597-1.81,25.194-3.62,37.791-5.43c-10.504-6.487-21.008-12.975-31.513-19.462c-0.058,0.033-0.111,0.073-0.173,0.101
					c-2.365,1.069-4.359-2.109-6.769-3.072c-1.136-0.454-2.404-0.393-3.625-0.316c-8.589,0.541-17.152,1.498-25.648,2.869
					c-2.579,0.416-5.385,1.07-7.729,2.248c7.546,6.395,15.846,11.899,24.684,16.342C147.122,74.865,149.222,75.857,150.9,77.402z"/>
			</g>
			<g>
				<path fill="#935B41" d="M44.845,97.103c0.701,0.377,1.423,0.751,2.21,0.868c1.068,0.159,2.142-0.171,3.172-0.495
					c11.577-3.644,23.259-7.111,35.256-8.945c-9.271-6.478-18.128-13.548-26.515-21.137c-1.098-0.159-2.232-0.02-3.337,0.146
					c-13.235,1.979-26.386,4.51-39.416,7.557C24.498,83.905,34.194,91.382,44.845,97.103z"/>
			</g>
			<g>
				<path fill="#935B41" d="M99.19,88.44c1.548,0.152,3.082-0.311,4.575-0.749c12.352-3.626,25.111-5.864,37.959-6.657
					c-5.07-4.844-11.154-8.473-17.18-12.059c-5.491-3.267-10.982-6.535-16.473-9.802c-0.406,0.047-0.811,0.114-1.206,0.193
					c-12.844,2.574-25.688,5.147-38.532,7.721c8.17,7.088,16.881,13.553,26.042,19.303C95.867,87.326,97.438,88.267,99.19,88.44z"/>
			</g>
		</g>
		<g>
			<path fill="#773311" d="M44.965,80.837c0.088,0.122,0.094,0.298,0.019,0.524c-0.074,0.226-0.273,0.487-0.593,0.784
				c-0.395,0.337-0.881,0.681-1.457,1.038c-0.576,0.355-1.211,0.669-1.902,0.942c-0.694,0.271-1.433,0.459-2.216,0.563
				c-0.783,0.104-1.6,0.051-2.448-0.16c-0.696-0.076-1.288-0.38-1.775-0.917c-0.49-0.535-0.788-1.223-0.899-2.061
				c-0.11-0.839,0.021-1.788,0.395-2.848c0.374-1.06,1.095-2.142,2.163-3.242c-0.655,0.181-1.326,0.373-2.018,0.573
				c-0.69,0.201-1.356,0.349-1.994,0.444c-0.639,0.095-1.226,0.097-1.763,0.007c-0.537-0.09-0.982-0.329-1.332-0.713
				c-0.237-0.275-0.371-0.567-0.403-0.875c-0.041-0.257,0.012-0.545,0.161-0.865c0.148-0.319,0.493-0.633,1.039-0.942
				c0.073-0.04,0.166-0.063,0.278-0.068c0.112-0.007,0.201,0.05,0.269,0.169c0.023,0.112,0.068,0.226,0.134,0.346
				c0.066,0.118,0.176,0.223,0.325,0.314c0.15,0.09,0.353,0.162,0.608,0.22c0.255,0.056,0.573,0.074,0.954,0.056
				c0.521-0.064,1.075-0.121,1.661-0.173c0.517-0.045,1.094-0.072,1.727-0.08c0.633-0.007,1.278,0.007,1.938,0.039
				c0.81-0.668,1.596-1.144,2.36-1.43c0.762-0.286,1.457-0.451,2.086-0.493c0.629-0.044,1.175,0,1.639,0.129
				c0.463,0.132,0.804,0.27,1.02,0.416c0.331,0.239,0.561,0.557,0.688,0.955c0.125,0.396,0.146,0.818,0.064,1.265
				c0.247-0.255,0.488-0.514,0.725-0.773c0.237-0.258,0.455-0.48,0.656-0.665c0.201-0.185,0.38-0.325,0.543-0.419
				c0.162-0.094,0.303-0.113,0.426-0.055c0.242,0.133,0.409,0.306,0.503,0.519c0.078,0.176,0.09,0.408,0.036,0.701
				c-0.055,0.293-0.263,0.645-0.628,1.058c-0.31,0.353-0.658,0.684-1.048,0.994c-0.391,0.31-0.809,0.593-1.254,0.847
				c-0.447,0.255-0.898,0.475-1.353,0.657c-0.455,0.182-0.889,0.315-1.304,0.399c-0.455,0.058-0.783,0.037-0.986-0.063
				c-0.204-0.1-0.349-0.212-0.436-0.335c-0.085-0.14-0.12-0.315-0.102-0.525c0.02-0.228,0.001-0.427-0.056-0.597
				c-0.031-0.077-0.061-0.145-0.094-0.205c-0.003-0.106-0.15-0.267-0.443-0.482c-0.293-0.214-0.714-0.39-1.265-0.528
				c-0.225,0.012-0.511,0.207-0.858,0.588c-0.347,0.38-0.689,0.851-1.026,1.411c-0.337,0.56-0.625,1.16-0.866,1.801
				c-0.241,0.64-0.351,1.237-0.333,1.792c0.02,0.555,0.206,1.016,0.559,1.385c0.353,0.367,0.951,0.549,1.795,0.545
				c0.555-0.004,1.093-0.068,1.615-0.194c0.522-0.125,1.01-0.279,1.466-0.462c0.454-0.184,0.866-0.374,1.236-0.572
				c0.37-0.198,0.668-0.374,0.895-0.528c0.148-0.079,0.313-0.156,0.492-0.229C44.765,80.746,44.892,80.752,44.965,80.837z
				 M44.331,73.488c-0.254-0.19-0.567-0.293-0.941-0.309c-0.307-0.02-0.69,0.047-1.151,0.201c-0.462,0.154-0.992,0.479-1.594,0.973
				c0.605,0.201,1.115,0.474,1.527,0.817c0.414,0.343,0.624,0.791,0.632,1.345c0.142-0.045,0.294-0.089,0.456-0.129
				c0.142-0.045,0.302-0.105,0.482-0.178c0.181-0.073,0.371-0.18,0.576-0.321c0.074-0.164,0.142-0.355,0.206-0.575
				c0.063-0.219,0.102-0.439,0.121-0.658c0.019-0.218,0.008-0.434-0.029-0.647C44.579,73.796,44.483,73.623,44.331,73.488z"/>
			<path fill="#773311" d="M46.835,83.398c-0.064-0.011-0.174-0.045-0.33-0.101c-0.156-0.055-0.314-0.133-0.472-0.234
				c-0.16-0.1-0.318-0.231-0.475-0.395c-0.16-0.162-0.262-0.355-0.309-0.577c-0.055-0.188-0.061-0.394-0.019-0.617
				c0.041-0.224,0.11-0.446,0.206-0.668c0.097-0.223,0.202-0.434,0.318-0.636c0.114-0.201,0.218-0.373,0.311-0.516
				c0.033-0.064,0.158-0.259,0.374-0.584c0.215-0.325,0.482-0.712,0.797-1.16c0.317-0.448,0.671-0.925,1.064-1.43
				c0.393-0.505,0.794-0.97,1.205-1.391c0.41-0.422,0.813-0.77,1.207-1.044c0.395-0.274,0.748-0.416,1.062-0.43
				c0.021,0.004,0.055,0.001,0.101-0.008c0.043,0.008,0.092,0.012,0.146,0.013c0.055,0.001,0.126,0.011,0.212,0.027
				c0.15,0.027,0.321,0.068,0.509,0.121c0.19,0.053,0.369,0.134,0.536,0.246c0.168,0.11,0.314,0.254,0.436,0.427
				c0.122,0.174,0.182,0.394,0.177,0.66l-0.009,0.052c-0.007,0.035-0.023,0.058-0.047,0.072c-0.049,0.027-0.09,0.036-0.122,0.031
				c-0.032-0.007-0.071-0.004-0.117,0.005c-0.246,0.007-0.569,0.138-0.971,0.394c-0.402,0.254-0.849,0.603-1.341,1.046
				c-0.492,0.442-1.008,0.96-1.551,1.554c-0.541,0.593-1.076,1.232-1.602,1.917c0.104-0.087,0.329-0.25,0.672-0.488
				c0.343-0.239,0.737-0.478,1.18-0.716c0.443-0.238,0.919-0.443,1.427-0.616c0.509-0.173,0.98-0.237,1.415-0.192
				c0.285,0.017,0.54,0.073,0.768,0.169c0.186,0.071,0.355,0.173,0.508,0.307c0.152,0.136,0.226,0.327,0.225,0.576
				c-0.02,0.227-0.19,0.516-0.509,0.866c-0.319,0.35-0.62,0.748-0.902,1.193c-0.31,0.476-0.511,0.959-0.601,1.45
				c-0.09,0.49-0.024,0.907,0.2,1.252c0.033,0.058,0.06,0.126,0.08,0.201c0.019,0.074-0.028,0.12-0.141,0.134
				c-0.136,0.011-0.298,0.02-0.488,0.029c-0.19,0.009-0.398-0.003-0.625-0.036c-0.226-0.033-0.466-0.09-0.716-0.173
				c-0.252-0.082-0.494-0.208-0.729-0.375c-0.097-0.072-0.15-0.144-0.16-0.215c-0.008-0.073-0.02-0.129-0.035-0.168
				c0.007-0.158,0.04-0.366,0.098-0.621c0.059-0.257,0.164-0.557,0.317-0.902c0.152-0.346,0.362-0.729,0.629-1.152
				c0.266-0.422,0.631-0.865,1.095-1.332c0.052-0.042,0.082-0.09,0.092-0.142c0.016-0.085-0.088-0.122-0.311-0.11
				c-0.092,0.019-0.306,0.094-0.641,0.227c-0.335,0.134-0.724,0.351-1.168,0.651c-0.443,0.301-0.887,0.694-1.332,1.181
				c-0.446,0.487-0.822,1.084-1.131,1.792C47.212,83.343,47.04,83.49,46.835,83.398z"/>
			<path fill="#773311" d="M59.418,78.925c0.101,0.055,0.184,0.114,0.25,0.18c0.065,0.065,0.142,0.152,0.234,0.257
				c0.104,0.162,0.169,0.347,0.197,0.557c0.027,0.209,0.027,0.418,0,0.627c-0.028,0.209-0.074,0.404-0.142,0.588
				s-0.133,0.331-0.198,0.443c0.146,0.045,0.306,0.084,0.477,0.116c0.149,0.027,0.329,0.047,0.537,0.059
				c0.208,0.012,0.438-0.003,0.689-0.045c0.157-0.007,0.266,0.005,0.327,0.033c0.036,0.043,0.043,0.129,0.019,0.258
				c-0.024,0.129-0.097,0.226-0.221,0.293c-0.265,0.11-0.555,0.181-0.87,0.212c-0.341,0.044-0.704,0.031-1.09-0.041
				c-0.15-0.028-0.255-0.056-0.317-0.085l-0.084,0.09c-0.028,0.031-0.057,0.065-0.085,0.105c-0.031,0.039-0.061,0.082-0.092,0.129
				c-0.145,0.188-0.364,0.418-0.66,0.692c-0.295,0.275-0.645,0.525-1.054,0.753c-0.407,0.226-0.865,0.391-1.372,0.492
				c-0.507,0.102-1.055,0.072-1.646-0.092c-0.544-0.172-0.886-0.452-1.024-0.843c-0.137-0.39-0.136-0.816,0.005-1.28
				c0.141-0.463,0.383-0.93,0.725-1.399c0.34-0.471,0.73-0.87,1.169-1.197c0.154-0.114,0.318-0.226,0.493-0.337
				c0.176-0.109,0.362-0.217,0.559-0.323c0.145-0.061,0.327-0.121,0.549-0.178c0.221-0.057,0.395-0.011,0.523,0.137
				c0.078,0.051,0.12,0.098,0.122,0.142c0.003,0.045,0.001,0.085-0.005,0.12c0.356-0.486,0.805-0.696,1.347-0.631l0.225,0.041
				C59.181,78.828,59.317,78.871,59.418,78.925z M57.681,82.02c0.074-0.04,0.113-0.069,0.116-0.087
				c-0.118-0.074-0.223-0.165-0.315-0.271c-0.094-0.088-0.18-0.197-0.255-0.327c-0.074-0.129-0.129-0.286-0.161-0.471
				c-0.007-0.089-0.011-0.188-0.012-0.295c-0.003-0.108,0.007-0.221,0.029-0.342c-0.012-0.055,0.013-0.13,0.076-0.226
				c0.016-0.085,0.04-0.161,0.074-0.226c0.035-0.064,0.071-0.137,0.108-0.22c-0.06,0.079-0.177,0.172-0.351,0.282
				c-0.084,0.09-0.177,0.172-0.278,0.242c-0.08,0.073-0.173,0.154-0.278,0.242c-0.105,0.086-0.198,0.176-0.282,0.267
				c-0.112,0.122-0.227,0.269-0.347,0.443c-0.121,0.173-0.247,0.372-0.378,0.597c-0.158,0.255-0.274,0.523-0.347,0.802
				c-0.074,0.279,0.033,0.474,0.325,0.58c0.186,0.07,0.41,0.058,0.672-0.035c0.261-0.094,0.491-0.204,0.692-0.326
				C57.009,82.534,57.314,82.324,57.681,82.02z M58.608,80.963c0.208-0.282,0.317-0.572,0.329-0.873
				c0.011-0.301-0.071-0.458-0.245-0.472c-0.176-0.015-0.307,0.068-0.395,0.246c-0.089,0.18-0.128,0.359-0.117,0.539
				c-0.004,0.142,0.07,0.281,0.223,0.415C58.479,80.886,58.547,80.934,58.608,80.963z"/>
			<path fill="#773311" d="M67.393,83.791c0.109,0.126,0.071,0.27-0.114,0.432c-0.188,0.178-0.471,0.415-0.846,0.71
				c-0.376,0.295-0.83,0.557-1.36,0.789c-0.531,0.23-1.14,0.38-1.829,0.448c-0.689,0.068-1.439-0.036-2.254-0.311
				c-0.627-0.205-1.014-0.512-1.159-0.922c-0.146-0.41-0.141-0.853,0.013-1.332c0.156-0.477,0.43-0.943,0.825-1.395
				c0.394-0.451,0.818-0.83,1.274-1.137c0.277-0.18,0.584-0.34,0.921-0.483c0.337-0.142,0.682-0.243,1.036-0.302
				c0.355-0.058,0.705-0.061,1.05-0.005c0.343,0.055,0.663,0.189,0.955,0.403c0.293,0.214,0.415,0.482,0.367,0.802
				c-0.048,0.321-0.196,0.631-0.439,0.933c-0.245,0.302-0.555,0.569-0.93,0.802s-0.732,0.362-1.07,0.388
				c-0.362,0.04-0.616,0.033-0.761-0.021c-0.145-0.053-0.243-0.12-0.295-0.201l-0.027-0.032c-0.064-0.136-0.045-0.266,0.055-0.39
				c0.101-0.124,0.25-0.238,0.447-0.345c0.094-0.036,0.213-0.106,0.355-0.214c0.141-0.108,0.265-0.231,0.369-0.372
				c0.104-0.141,0.178-0.278,0.226-0.411c0.047-0.134,0.045-0.25-0.003-0.347c-0.052-0.081-0.165-0.097-0.339-0.051
				c-0.176,0.048-0.359,0.144-0.552,0.285c-0.193,0.142-0.387,0.321-0.581,0.533c-0.194,0.213-0.347,0.443-0.459,0.689
				c-0.243,0.471-0.326,0.829-0.25,1.074c0.077,0.246,0.282,0.426,0.615,0.541c0.459,0.156,0.906,0.23,1.34,0.221
				c0.434-0.008,0.842-0.057,1.224-0.146c0.382-0.089,0.729-0.194,1.039-0.314c0.31-0.121,0.564-0.234,0.761-0.339
				c0.049-0.027,0.113-0.041,0.192-0.045C67.267,83.724,67.335,83.745,67.393,83.791z"/>
			<path fill="#773311" d="M72.099,81.275c0.101,0.055,0.184,0.114,0.25,0.18c0.065,0.065,0.142,0.152,0.234,0.257
				c0.104,0.162,0.169,0.347,0.197,0.557c0.028,0.209,0.027,0.418,0,0.626c-0.028,0.209-0.074,0.404-0.142,0.588
				c-0.066,0.184-0.133,0.331-0.198,0.443c0.146,0.045,0.306,0.084,0.478,0.116c0.149,0.028,0.328,0.047,0.537,0.059
				c0.207,0.012,0.438-0.003,0.69-0.045c0.156-0.007,0.265,0.005,0.326,0.035c0.036,0.042,0.042,0.128,0.019,0.257
				c-0.024,0.129-0.097,0.226-0.221,0.293c-0.265,0.11-0.555,0.182-0.87,0.212c-0.341,0.044-0.704,0.031-1.09-0.041
				c-0.15-0.028-0.255-0.056-0.317-0.085l-0.084,0.09c-0.028,0.031-0.057,0.066-0.085,0.105c-0.031,0.039-0.061,0.082-0.092,0.129
				c-0.145,0.188-0.364,0.418-0.66,0.692c-0.295,0.275-0.645,0.525-1.054,0.753c-0.407,0.226-0.865,0.391-1.371,0.492
				c-0.507,0.102-1.055,0.072-1.646-0.09c-0.544-0.173-0.886-0.454-1.024-0.845c-0.137-0.39-0.136-0.816,0.005-1.28
				c0.141-0.463,0.383-0.93,0.725-1.399c0.342-0.471,0.732-0.87,1.169-1.197c0.154-0.114,0.318-0.226,0.494-0.337
				c0.176-0.109,0.362-0.217,0.559-0.323c0.145-0.061,0.327-0.121,0.549-0.178c0.221-0.056,0.395-0.011,0.523,0.137
				c0.079,0.05,0.12,0.098,0.124,0.142c0.001,0.045,0,0.085-0.007,0.12c0.356-0.486,0.805-0.696,1.348-0.631l0.225,0.041
				C71.862,81.177,71.997,81.22,72.099,81.275z M70.362,84.369c0.073-0.04,0.112-0.068,0.114-0.085
				c-0.118-0.076-0.223-0.166-0.315-0.273c-0.095-0.088-0.18-0.197-0.255-0.327c-0.074-0.129-0.129-0.286-0.161-0.471
				c-0.007-0.089-0.011-0.188-0.012-0.295c-0.003-0.106,0.008-0.221,0.029-0.342c-0.012-0.055,0.013-0.13,0.076-0.226
				c0.016-0.085,0.04-0.161,0.074-0.226c0.034-0.064,0.07-0.137,0.108-0.22c-0.06,0.079-0.177,0.172-0.351,0.282
				c-0.084,0.09-0.177,0.172-0.278,0.242c-0.08,0.073-0.173,0.154-0.278,0.242c-0.105,0.086-0.198,0.176-0.282,0.267
				c-0.112,0.122-0.228,0.269-0.347,0.443c-0.121,0.173-0.247,0.372-0.378,0.597c-0.158,0.255-0.274,0.523-0.347,0.802
				c-0.074,0.279,0.033,0.474,0.325,0.58c0.186,0.071,0.41,0.058,0.672-0.035c0.261-0.094,0.491-0.204,0.692-0.326
				C69.689,84.884,69.994,84.673,70.362,84.369z M71.288,83.313c0.208-0.282,0.317-0.572,0.329-0.873
				c0.011-0.301-0.071-0.458-0.245-0.472c-0.176-0.015-0.307,0.068-0.395,0.246c-0.089,0.18-0.128,0.359-0.117,0.539
				c-0.004,0.142,0.071,0.281,0.223,0.415C71.159,83.235,71.227,83.283,71.288,83.313z"/>
		</g>
		<g>
			<path fill="#773311" d="M97.165,73.607c0.088,0.122,0.094,0.298,0.019,0.524c-0.074,0.226-0.273,0.487-0.593,0.783
				c-0.395,0.337-0.881,0.681-1.457,1.038c-0.576,0.355-1.211,0.669-1.902,0.942c-0.694,0.271-1.433,0.459-2.216,0.563
				s-1.6,0.051-2.448-0.16c-0.696-0.076-1.288-0.38-1.775-0.917c-0.49-0.535-0.788-1.223-0.899-2.061
				c-0.11-0.839,0.021-1.788,0.395-2.848c0.374-1.06,1.095-2.142,2.163-3.242c-0.655,0.181-1.326,0.373-2.018,0.573
				c-0.69,0.201-1.355,0.349-1.994,0.444c-0.639,0.095-1.227,0.097-1.763,0.007c-0.537-0.09-0.982-0.328-1.332-0.713
				c-0.237-0.275-0.371-0.567-0.403-0.875c-0.041-0.257,0.012-0.545,0.161-0.865c0.148-0.319,0.493-0.633,1.039-0.942
				c0.073-0.04,0.166-0.063,0.278-0.068c0.112-0.007,0.201,0.05,0.269,0.169c0.023,0.112,0.068,0.226,0.134,0.346
				c0.066,0.118,0.176,0.223,0.325,0.314c0.15,0.09,0.353,0.162,0.608,0.22c0.255,0.056,0.573,0.074,0.954,0.056
				c0.521-0.064,1.075-0.121,1.662-0.173c0.517-0.045,1.093-0.072,1.727-0.08c0.633-0.007,1.279,0.007,1.938,0.039
				c0.81-0.668,1.596-1.144,2.36-1.43c0.762-0.286,1.457-0.451,2.086-0.493c0.629-0.044,1.175,0,1.639,0.129
				c0.463,0.132,0.804,0.27,1.02,0.416c0.331,0.239,0.561,0.557,0.688,0.955c0.125,0.396,0.146,0.818,0.064,1.265
				c0.247-0.255,0.488-0.514,0.725-0.773c0.237-0.258,0.455-0.48,0.656-0.665c0.201-0.185,0.38-0.325,0.543-0.419
				c0.162-0.094,0.303-0.113,0.426-0.055c0.242,0.133,0.408,0.306,0.503,0.519c0.079,0.176,0.09,0.408,0.036,0.701
				s-0.263,0.645-0.628,1.058c-0.31,0.353-0.658,0.684-1.048,0.994c-0.391,0.31-0.809,0.593-1.255,0.847
				c-0.447,0.255-0.898,0.475-1.353,0.657c-0.455,0.182-0.889,0.315-1.304,0.399c-0.455,0.058-0.784,0.037-0.986-0.063
				c-0.204-0.1-0.348-0.212-0.436-0.335c-0.085-0.14-0.12-0.315-0.102-0.525c0.02-0.228,0.001-0.427-0.056-0.597
				c-0.031-0.077-0.061-0.145-0.094-0.205c-0.003-0.106-0.15-0.267-0.443-0.482c-0.293-0.214-0.714-0.39-1.265-0.528
				c-0.225,0.012-0.511,0.207-0.858,0.588c-0.347,0.38-0.689,0.851-1.026,1.411c-0.337,0.56-0.625,1.16-0.866,1.801
				c-0.241,0.64-0.351,1.237-0.333,1.792c0.02,0.555,0.206,1.016,0.559,1.385c0.353,0.367,0.951,0.549,1.795,0.545
				c0.555-0.004,1.093-0.068,1.615-0.194c0.521-0.125,1.01-0.279,1.466-0.462c0.454-0.184,0.866-0.374,1.236-0.572
				c0.37-0.198,0.668-0.374,0.895-0.528c0.148-0.079,0.313-0.156,0.492-0.229C96.966,73.516,97.092,73.522,97.165,73.607z
				 M96.532,66.258c-0.254-0.19-0.567-0.293-0.941-0.309c-0.307-0.02-0.69,0.047-1.151,0.201c-0.462,0.154-0.992,0.479-1.594,0.973
				c0.605,0.201,1.115,0.474,1.527,0.817c0.414,0.343,0.624,0.792,0.632,1.345c0.142-0.045,0.294-0.089,0.456-0.129
				c0.142-0.045,0.302-0.105,0.482-0.178c0.181-0.073,0.371-0.18,0.576-0.321c0.074-0.164,0.142-0.355,0.206-0.575
				c0.062-0.219,0.102-0.439,0.121-0.658c0.019-0.218,0.008-0.434-0.029-0.647C96.779,66.565,96.684,66.393,96.532,66.258z"/>
			<path fill="#773311" d="M99.036,76.168c-0.064-0.011-0.174-0.045-0.33-0.101c-0.156-0.055-0.314-0.133-0.472-0.234
				c-0.16-0.1-0.318-0.232-0.475-0.395c-0.16-0.162-0.262-0.355-0.309-0.577c-0.055-0.188-0.061-0.394-0.019-0.617
				c0.041-0.224,0.11-0.446,0.206-0.668c0.097-0.223,0.202-0.434,0.318-0.636c0.114-0.201,0.218-0.373,0.311-0.516
				c0.033-0.064,0.158-0.259,0.374-0.584c0.215-0.325,0.482-0.712,0.797-1.16c0.317-0.448,0.67-0.925,1.064-1.43
				c0.392-0.506,0.794-0.97,1.205-1.392c0.41-0.422,0.813-0.77,1.207-1.044c0.395-0.274,0.748-0.416,1.061-0.43
				c0.021,0.004,0.055,0.001,0.101-0.008c0.043,0.008,0.092,0.012,0.146,0.013c0.055,0.001,0.126,0.011,0.212,0.027
				c0.15,0.027,0.321,0.068,0.509,0.121c0.19,0.053,0.369,0.134,0.536,0.246c0.168,0.11,0.314,0.254,0.436,0.427
				c0.122,0.174,0.182,0.394,0.177,0.66l-0.009,0.052c-0.007,0.035-0.023,0.058-0.047,0.072c-0.049,0.027-0.09,0.036-0.122,0.031
				c-0.032-0.007-0.07-0.004-0.117,0.005c-0.246,0.007-0.569,0.138-0.971,0.394c-0.402,0.254-0.849,0.603-1.341,1.046
				c-0.492,0.442-1.008,0.96-1.551,1.554c-0.541,0.593-1.076,1.232-1.602,1.917c0.104-0.087,0.328-0.25,0.672-0.488
				c0.343-0.239,0.737-0.478,1.18-0.716c0.443-0.238,0.919-0.443,1.427-0.616c0.509-0.173,0.98-0.237,1.415-0.192
				c0.285,0.017,0.54,0.073,0.768,0.169c0.186,0.071,0.355,0.173,0.508,0.307c0.152,0.136,0.226,0.327,0.225,0.576
				c-0.02,0.227-0.19,0.516-0.51,0.866c-0.319,0.35-0.62,0.747-0.902,1.193c-0.31,0.476-0.511,0.959-0.601,1.45
				c-0.09,0.49-0.024,0.907,0.199,1.252c0.033,0.058,0.06,0.126,0.08,0.201c0.019,0.074-0.028,0.12-0.141,0.134
				c-0.136,0.011-0.298,0.02-0.488,0.029c-0.19,0.009-0.398-0.003-0.625-0.036c-0.226-0.033-0.466-0.09-0.716-0.173
				c-0.251-0.082-0.493-0.208-0.729-0.375c-0.097-0.072-0.15-0.144-0.16-0.215c-0.008-0.073-0.02-0.129-0.035-0.168
				c0.007-0.158,0.04-0.366,0.098-0.621c0.058-0.257,0.164-0.557,0.317-0.902c0.152-0.346,0.362-0.729,0.629-1.152
				c0.266-0.422,0.631-0.865,1.095-1.332c0.052-0.042,0.082-0.09,0.092-0.142c0.016-0.085-0.088-0.122-0.311-0.11
				c-0.092,0.019-0.306,0.094-0.641,0.228c-0.335,0.134-0.724,0.351-1.168,0.65c-0.443,0.301-0.887,0.694-1.332,1.181
				c-0.446,0.487-0.822,1.084-1.131,1.792C99.412,76.113,99.24,76.259,99.036,76.168z"/>
			<path fill="#773311" d="M111.619,71.695c0.101,0.055,0.184,0.114,0.25,0.18c0.065,0.065,0.142,0.152,0.234,0.257
				c0.104,0.162,0.169,0.347,0.197,0.557c0.027,0.209,0.027,0.418,0,0.626c-0.028,0.209-0.074,0.404-0.142,0.588
				c-0.068,0.184-0.133,0.331-0.198,0.443c0.146,0.045,0.306,0.084,0.478,0.116c0.149,0.027,0.329,0.047,0.537,0.059
				c0.207,0.012,0.438-0.003,0.689-0.045c0.157-0.007,0.266,0.005,0.327,0.033c0.036,0.043,0.042,0.129,0.019,0.258
				c-0.024,0.129-0.097,0.226-0.221,0.293c-0.265,0.11-0.555,0.181-0.87,0.212c-0.341,0.044-0.704,0.031-1.09-0.041
				c-0.15-0.028-0.255-0.056-0.317-0.085l-0.084,0.09c-0.028,0.031-0.057,0.065-0.085,0.105c-0.031,0.039-0.061,0.082-0.092,0.129
				c-0.145,0.188-0.364,0.418-0.66,0.692c-0.295,0.275-0.645,0.525-1.054,0.753c-0.407,0.226-0.865,0.391-1.371,0.492
				c-0.507,0.102-1.055,0.072-1.646-0.092c-0.544-0.172-0.886-0.452-1.024-0.843c-0.137-0.39-0.136-0.816,0.005-1.28
				c0.141-0.463,0.383-0.93,0.725-1.399c0.341-0.471,0.73-0.87,1.169-1.197c0.154-0.114,0.318-0.226,0.493-0.337
				c0.176-0.109,0.362-0.217,0.559-0.323c0.145-0.061,0.327-0.121,0.549-0.178c0.221-0.057,0.395-0.011,0.523,0.137
				c0.079,0.05,0.12,0.098,0.122,0.142c0.003,0.045,0.001,0.085-0.005,0.12c0.356-0.486,0.805-0.696,1.348-0.631l0.225,0.041
				C111.382,71.598,111.518,71.641,111.619,71.695z M109.881,74.789c0.074-0.04,0.113-0.069,0.116-0.087
				c-0.118-0.074-0.223-0.165-0.315-0.271c-0.095-0.088-0.18-0.197-0.255-0.327c-0.074-0.129-0.129-0.286-0.161-0.471
				c-0.007-0.089-0.011-0.188-0.012-0.295c-0.003-0.108,0.007-0.221,0.029-0.342c-0.012-0.055,0.013-0.13,0.076-0.226
				c0.016-0.085,0.04-0.161,0.074-0.226c0.035-0.064,0.07-0.137,0.108-0.22c-0.06,0.079-0.177,0.172-0.351,0.282
				c-0.084,0.09-0.177,0.172-0.278,0.242c-0.08,0.073-0.173,0.154-0.278,0.242c-0.105,0.086-0.198,0.176-0.282,0.267
				c-0.112,0.122-0.228,0.269-0.347,0.443c-0.121,0.173-0.247,0.372-0.378,0.597c-0.158,0.255-0.274,0.523-0.347,0.802
				c-0.074,0.279,0.033,0.474,0.325,0.58c0.186,0.071,0.41,0.058,0.672-0.035c0.261-0.094,0.491-0.204,0.692-0.326
				C109.21,75.304,109.514,75.094,109.881,74.789z M110.809,73.733c0.207-0.282,0.317-0.572,0.328-0.873
				c0.011-0.301-0.071-0.458-0.245-0.472c-0.176-0.015-0.307,0.068-0.395,0.246c-0.089,0.18-0.128,0.359-0.117,0.539
				c-0.004,0.142,0.071,0.281,0.223,0.415C110.68,73.656,110.747,73.704,110.809,73.733z"/>
			<path fill="#773311" d="M119.594,76.561c0.109,0.126,0.07,0.27-0.114,0.432c-0.188,0.178-0.471,0.415-0.846,0.71
				c-0.377,0.295-0.83,0.557-1.36,0.789c-0.531,0.23-1.14,0.38-1.829,0.448c-0.689,0.068-1.439-0.036-2.254-0.311
				c-0.627-0.205-1.014-0.512-1.159-0.922c-0.146-0.41-0.141-0.853,0.013-1.332c0.156-0.477,0.43-0.943,0.825-1.395
				c0.394-0.451,0.818-0.83,1.274-1.137c0.277-0.18,0.584-0.34,0.921-0.483c0.337-0.142,0.682-0.243,1.036-0.302
				c0.355-0.059,0.705-0.061,1.05-0.005c0.343,0.055,0.662,0.189,0.955,0.403c0.293,0.214,0.415,0.482,0.367,0.802
				c-0.048,0.321-0.196,0.631-0.439,0.933c-0.245,0.302-0.555,0.569-0.93,0.802c-0.375,0.233-0.732,0.362-1.069,0.388
				c-0.362,0.04-0.616,0.033-0.761-0.021c-0.145-0.053-0.244-0.12-0.295-0.201l-0.027-0.032c-0.064-0.136-0.045-0.266,0.055-0.39
				c0.101-0.124,0.25-0.238,0.447-0.345c0.094-0.036,0.213-0.106,0.355-0.214c0.141-0.108,0.265-0.231,0.369-0.372
				c0.104-0.141,0.178-0.278,0.226-0.411c0.047-0.134,0.045-0.25-0.003-0.347c-0.052-0.081-0.165-0.097-0.339-0.051
				c-0.176,0.048-0.359,0.144-0.552,0.285c-0.193,0.142-0.387,0.321-0.581,0.533c-0.194,0.213-0.347,0.443-0.459,0.689
				c-0.243,0.471-0.326,0.829-0.25,1.074c0.077,0.246,0.282,0.426,0.615,0.541c0.459,0.156,0.906,0.23,1.34,0.221
				c0.434-0.008,0.842-0.057,1.224-0.146c0.382-0.089,0.729-0.194,1.039-0.314c0.31-0.121,0.564-0.234,0.761-0.339
				c0.049-0.027,0.113-0.041,0.192-0.045C119.467,76.493,119.535,76.515,119.594,76.561z"/>
			<path fill="#773311" d="M124.299,74.044c0.101,0.055,0.183,0.114,0.25,0.18c0.065,0.065,0.142,0.152,0.234,0.257
				c0.104,0.162,0.169,0.347,0.197,0.557c0.028,0.209,0.027,0.418,0,0.626c-0.028,0.209-0.074,0.404-0.142,0.588
				c-0.066,0.184-0.133,0.331-0.198,0.443c0.146,0.045,0.306,0.084,0.478,0.116c0.149,0.028,0.329,0.047,0.537,0.059
				c0.208,0.012,0.438-0.003,0.69-0.045c0.156-0.007,0.265,0.005,0.326,0.035c0.036,0.042,0.043,0.128,0.019,0.257
				s-0.097,0.226-0.221,0.293c-0.265,0.11-0.555,0.182-0.87,0.212c-0.341,0.044-0.704,0.031-1.09-0.041
				c-0.15-0.028-0.255-0.056-0.317-0.085l-0.084,0.09c-0.028,0.031-0.057,0.066-0.085,0.105c-0.031,0.039-0.061,0.082-0.092,0.129
				c-0.145,0.188-0.365,0.418-0.66,0.692c-0.295,0.275-0.645,0.525-1.053,0.753c-0.407,0.226-0.865,0.391-1.372,0.492
				c-0.507,0.102-1.055,0.072-1.646-0.09c-0.544-0.173-0.886-0.454-1.024-0.845c-0.137-0.39-0.136-0.816,0.005-1.28
				c0.141-0.463,0.383-0.93,0.725-1.399c0.342-0.471,0.732-0.87,1.169-1.197c0.154-0.114,0.318-0.226,0.493-0.337
				c0.176-0.109,0.362-0.217,0.559-0.323c0.145-0.061,0.327-0.121,0.549-0.178c0.221-0.056,0.395-0.011,0.523,0.137
				c0.078,0.05,0.12,0.098,0.124,0.142c0.001,0.045,0,0.085-0.007,0.12c0.357-0.486,0.805-0.696,1.348-0.631l0.225,0.041
				C124.062,73.947,124.198,73.99,124.299,74.044z M122.563,77.139c0.073-0.04,0.112-0.068,0.114-0.085
				c-0.118-0.076-0.223-0.166-0.315-0.273c-0.094-0.088-0.18-0.197-0.255-0.327c-0.074-0.129-0.129-0.286-0.161-0.471
				c-0.007-0.089-0.011-0.188-0.012-0.295c-0.003-0.106,0.008-0.221,0.029-0.342c-0.012-0.055,0.013-0.13,0.076-0.226
				c0.016-0.085,0.04-0.161,0.074-0.226c0.035-0.064,0.071-0.137,0.108-0.22c-0.06,0.079-0.177,0.172-0.351,0.282
				c-0.084,0.09-0.177,0.172-0.278,0.242c-0.08,0.073-0.173,0.154-0.278,0.242c-0.105,0.086-0.198,0.176-0.282,0.267
				c-0.112,0.122-0.227,0.269-0.347,0.443c-0.121,0.173-0.247,0.372-0.378,0.597c-0.158,0.255-0.274,0.523-0.347,0.802
				c-0.074,0.279,0.033,0.474,0.325,0.58c0.186,0.071,0.41,0.058,0.672-0.035c0.261-0.094,0.491-0.204,0.692-0.326
				C121.89,77.653,122.195,77.443,122.563,77.139z M123.489,76.082c0.207-0.282,0.317-0.572,0.329-0.873
				c0.011-0.301-0.07-0.458-0.245-0.472c-0.176-0.015-0.307,0.068-0.395,0.246c-0.089,0.18-0.128,0.359-0.117,0.539
				c-0.004,0.142,0.07,0.281,0.223,0.415C123.36,76.005,123.428,76.053,123.489,76.082z"/>
		</g>
		<g>
			<path fill="#773311" d="M149.352,64.762c0.078,0.128,0.076,0.301-0.012,0.524c-0.088,0.222-0.301,0.471-0.639,0.748
				c-0.412,0.314-0.918,0.629-1.514,0.952c-0.595,0.321-1.245,0.599-1.954,0.831c-0.708,0.23-1.455,0.375-2.244,0.434
				c-0.788,0.058-1.6-0.041-2.434-0.301c-0.69-0.116-1.263-0.455-1.719-1.018c-0.458-0.561-0.716-1.265-0.778-2.109
				c-0.063-0.843,0.124-1.784,0.557-2.82c0.435-1.036,1.217-2.075,2.345-3.112c-0.664,0.142-1.345,0.295-2.046,0.456
				c-0.701,0.161-1.374,0.269-2.018,0.329c-0.643,0.057-1.229,0.027-1.759-0.096c-0.532-0.121-0.962-0.383-1.289-0.788
				c-0.219-0.289-0.338-0.587-0.351-0.898c-0.026-0.258,0.043-0.543,0.21-0.854c0.165-0.309,0.529-0.603,1.091-0.881
				c0.076-0.035,0.17-0.052,0.282-0.05c0.112,0,0.198,0.061,0.258,0.184c0.017,0.113,0.055,0.23,0.114,0.354
				c0.058,0.122,0.162,0.233,0.306,0.333c0.144,0.096,0.343,0.181,0.593,0.253c0.253,0.071,0.569,0.108,0.95,0.11
				c0.524-0.033,1.08-0.058,1.668-0.077c0.519-0.015,1.098-0.009,1.729,0.02c0.632,0.029,1.276,0.08,1.932,0.15
				c0.847-0.62,1.66-1.05,2.438-1.292c0.78-0.241,1.482-0.366,2.112-0.374c0.629-0.007,1.172,0.068,1.628,0.225
				c0.454,0.157,0.786,0.314,0.995,0.474c0.317,0.258,0.528,0.588,0.632,0.992c0.101,0.403,0.098,0.826-0.009,1.268
				c0.261-0.242,0.516-0.484,0.768-0.73c0.25-0.243,0.482-0.452,0.693-0.627c0.212-0.173,0.398-0.302,0.566-0.387
				c0.166-0.085,0.31-0.094,0.43-0.031c0.231,0.149,0.388,0.33,0.471,0.548c0.069,0.178,0.066,0.414-0.004,0.701
				c-0.072,0.29-0.301,0.629-0.688,1.02c-0.33,0.334-0.696,0.644-1.104,0.933c-0.407,0.286-0.842,0.544-1.301,0.774
				c-0.462,0.228-0.923,0.422-1.389,0.577c-0.464,0.157-0.906,0.263-1.324,0.323c-0.458,0.032-0.785-0.008-0.982-0.12
				c-0.197-0.11-0.334-0.23-0.415-0.359c-0.077-0.144-0.101-0.322-0.072-0.531c0.032-0.225,0.025-0.426-0.023-0.6
				c-0.025-0.078-0.052-0.148-0.082-0.21c0.004-0.105-0.134-0.274-0.414-0.506c-0.281-0.23-0.69-0.431-1.233-0.6
				c-0.225,0-0.521,0.177-0.89,0.537c-0.369,0.361-0.737,0.812-1.104,1.35c-0.37,0.54-0.693,1.123-0.968,1.747
				c-0.278,0.627-0.423,1.216-0.436,1.772c-0.012,0.555,0.148,1.026,0.477,1.414c0.331,0.388,0.918,0.603,1.761,0.648
				c0.553,0.028,1.096-0.007,1.623-0.1c0.527-0.097,1.024-0.222,1.49-0.378c0.464-0.157,0.886-0.322,1.268-0.499
				c0.379-0.177,0.688-0.335,0.925-0.476c0.15-0.069,0.319-0.137,0.503-0.2C149.158,64.659,149.283,64.673,149.352,64.762z
				 M149.142,57.388c-0.242-0.204-0.549-0.325-0.922-0.362c-0.305-0.039-0.692,0.005-1.16,0.134
				c-0.47,0.128-1.018,0.422-1.647,0.879c0.592,0.237,1.087,0.535,1.478,0.903c0.392,0.366,0.577,0.826,0.553,1.378
				c0.145-0.036,0.299-0.072,0.463-0.104c0.142-0.035,0.307-0.087,0.491-0.148c0.185-0.063,0.382-0.16,0.592-0.287
				c0.084-0.16,0.164-0.347,0.241-0.563c0.074-0.215,0.128-0.431,0.158-0.649c0.032-0.218,0.033-0.432,0.008-0.648
				C149.371,57.71,149.286,57.532,149.142,57.388z"/>
			<path fill="#773311" d="M151.036,67.418c-0.063-0.016-0.172-0.056-0.322-0.121c-0.153-0.062-0.307-0.15-0.459-0.261
				c-0.154-0.109-0.303-0.25-0.451-0.422c-0.15-0.172-0.242-0.37-0.275-0.595c-0.044-0.19-0.039-0.396,0.016-0.617
				c0.055-0.221,0.137-0.438,0.245-0.655c0.11-0.218,0.228-0.422,0.355-0.616c0.125-0.194,0.238-0.361,0.339-0.499
				c0.037-0.061,0.173-0.249,0.407-0.561c0.233-0.311,0.522-0.682,0.863-1.112c0.341-0.428,0.722-0.883,1.141-1.366
				c0.423-0.482,0.85-0.923,1.285-1.32c0.434-0.396,0.855-0.722,1.265-0.974c0.41-0.25,0.77-0.372,1.084-0.368
				c0.02,0.005,0.055,0.007,0.101-0.001c0.044,0.009,0.09,0.019,0.146,0.023c0.055,0.004,0.125,0.016,0.21,0.037
				c0.146,0.036,0.314,0.088,0.501,0.15c0.186,0.064,0.359,0.156,0.52,0.275c0.161,0.122,0.298,0.273,0.412,0.454
				c0.112,0.181,0.157,0.403,0.137,0.669l-0.012,0.051c-0.009,0.035-0.026,0.057-0.049,0.068c-0.05,0.024-0.093,0.032-0.124,0.025
				c-0.032-0.008-0.072-0.008-0.118-0.003c-0.246-0.007-0.576,0.106-0.992,0.337c-0.415,0.233-0.882,0.555-1.398,0.968
				c-0.517,0.412-1.061,0.899-1.638,1.462c-0.577,0.56-1.145,1.168-1.709,1.822c0.108-0.081,0.342-0.231,0.698-0.45
				c0.355-0.218,0.764-0.434,1.219-0.647c0.456-0.213,0.943-0.39,1.462-0.533c0.516-0.144,0.991-0.18,1.423-0.109
				c0.282,0.033,0.535,0.104,0.756,0.213c0.183,0.081,0.344,0.192,0.489,0.337c0.144,0.142,0.208,0.339,0.192,0.588
				c-0.032,0.226-0.22,0.503-0.557,0.835c-0.339,0.33-0.663,0.71-0.97,1.139c-0.337,0.458-0.565,0.927-0.684,1.413
				c-0.118,0.484-0.077,0.905,0.126,1.26c0.031,0.062,0.053,0.132,0.069,0.207c0.015,0.074-0.035,0.116-0.149,0.125
				c-0.137,0.001-0.298,0.003-0.488,0c-0.191-0.001-0.398-0.025-0.623-0.07c-0.223-0.045-0.459-0.117-0.704-0.214
				c-0.247-0.096-0.482-0.236-0.708-0.416c-0.092-0.077-0.141-0.153-0.145-0.226c-0.005-0.07-0.013-0.128-0.027-0.166
				c0.016-0.158,0.061-0.364,0.134-0.616c0.072-0.253,0.194-0.547,0.367-0.883c0.172-0.335,0.404-0.706,0.694-1.112
				c0.29-0.406,0.681-0.829,1.169-1.266c0.056-0.041,0.089-0.085,0.101-0.137c0.021-0.085-0.081-0.129-0.305-0.13
				c-0.093,0.015-0.31,0.078-0.653,0.193c-0.343,0.113-0.744,0.306-1.203,0.581c-0.46,0.275-0.926,0.642-1.398,1.103
				c-0.472,0.46-0.883,1.035-1.232,1.724C151.417,67.385,151.236,67.521,151.036,67.418z"/>
			<path fill="#773311" d="M163.857,63.676c0.096,0.06,0.176,0.125,0.238,0.194c0.061,0.068,0.133,0.16,0.22,0.27
				c0.094,0.166,0.149,0.355,0.165,0.567c0.015,0.21,0.003,0.418-0.036,0.625c-0.04,0.207-0.098,0.4-0.177,0.579
				c-0.079,0.18-0.152,0.323-0.223,0.432c0.144,0.053,0.301,0.101,0.471,0.142c0.146,0.036,0.325,0.065,0.532,0.089
				c0.208,0.024,0.438,0.023,0.69-0.005c0.158,0.003,0.266,0.021,0.326,0.052c0.033,0.045,0.035,0.132,0.004,0.258
				c-0.032,0.128-0.11,0.221-0.238,0.281c-0.271,0.094-0.564,0.149-0.881,0.161c-0.343,0.024-0.704-0.009-1.086-0.104
				c-0.149-0.037-0.251-0.071-0.311-0.104l-0.088,0.086c-0.031,0.028-0.061,0.061-0.092,0.1c-0.033,0.037-0.066,0.078-0.1,0.124
				c-0.156,0.178-0.388,0.395-0.698,0.652c-0.31,0.258-0.673,0.487-1.095,0.692c-0.419,0.201-0.886,0.339-1.397,0.412
				c-0.513,0.073-1.058,0.011-1.638-0.188c-0.533-0.202-0.859-0.501-0.975-0.901c-0.114-0.396-0.089-0.822,0.078-1.277
				c0.168-0.455,0.438-0.906,0.805-1.354c0.367-0.452,0.78-0.828,1.237-1.129c0.161-0.105,0.33-0.208,0.511-0.307
				c0.182-0.098,0.375-0.196,0.577-0.29c0.148-0.053,0.334-0.102,0.559-0.148c0.225-0.044,0.395,0.013,0.514,0.168
				c0.076,0.055,0.114,0.105,0.114,0.149c0,0.047-0.004,0.085-0.012,0.12c0.384-0.464,0.843-0.649,1.381-0.553l0.222,0.055
				C163.625,63.566,163.758,63.615,163.857,63.676z M161.944,66.665c0.077-0.036,0.117-0.063,0.121-0.08
				c-0.115-0.08-0.214-0.177-0.301-0.289c-0.089-0.093-0.168-0.207-0.237-0.342c-0.066-0.133-0.112-0.293-0.133-0.479
				c0-0.089,0.001-0.188,0.007-0.295c0.003-0.109,0.019-0.221,0.047-0.339c-0.008-0.056,0.021-0.13,0.089-0.222
				c0.021-0.084,0.049-0.158,0.088-0.222c0.039-0.061,0.079-0.133,0.12-0.213c-0.064,0.074-0.186,0.161-0.366,0.262
				c-0.089,0.085-0.186,0.161-0.291,0.226c-0.084,0.068-0.182,0.144-0.293,0.225c-0.109,0.08-0.206,0.164-0.295,0.251
				c-0.12,0.116-0.243,0.255-0.372,0.422c-0.132,0.165-0.27,0.358-0.411,0.575c-0.173,0.246-0.305,0.506-0.394,0.781
				c-0.09,0.274,0.007,0.475,0.291,0.597c0.181,0.081,0.404,0.082,0.672,0.004c0.266-0.08,0.502-0.176,0.71-0.285
				C161.244,67.142,161.559,66.949,161.944,66.665z M162.929,65.665c0.224-0.27,0.349-0.553,0.378-0.853
				c0.028-0.301-0.044-0.462-0.217-0.487c-0.174-0.024-0.31,0.051-0.408,0.223c-0.1,0.174-0.149,0.353-0.148,0.531
				c-0.012,0.142,0.055,0.285,0.199,0.428C162.806,65.58,162.871,65.632,162.929,65.665z"/>
			<path fill="#773311" d="M171.538,68.993c0.101,0.133,0.055,0.274-0.14,0.426c-0.197,0.166-0.495,0.386-0.885,0.66
				c-0.394,0.273-0.861,0.508-1.402,0.709c-0.544,0.198-1.161,0.314-1.853,0.342c-0.692,0.029-1.434-0.118-2.231-0.439
				c-0.615-0.241-0.983-0.571-1.104-0.987c-0.124-0.419-0.093-0.859,0.089-1.33c0.184-0.467,0.483-0.915,0.905-1.345
				c0.419-0.427,0.863-0.782,1.337-1.061c0.286-0.164,0.603-0.307,0.947-0.43c0.345-0.122,0.694-0.205,1.052-0.241
				c0.358-0.039,0.706-0.021,1.048,0.055c0.339,0.073,0.651,0.226,0.929,0.458c0.281,0.23,0.388,0.503,0.322,0.821
				c-0.066,0.318-0.231,0.619-0.492,0.906c-0.262,0.287-0.587,0.536-0.974,0.748c-0.388,0.212-0.752,0.319-1.091,0.326
				c-0.363,0.019-0.617-0.003-0.758-0.065c-0.142-0.061-0.237-0.133-0.283-0.217l-0.025-0.033c-0.056-0.14-0.031-0.269,0.077-0.387
				c0.108-0.117,0.263-0.223,0.467-0.317c0.096-0.031,0.218-0.094,0.366-0.194c0.148-0.1,0.278-0.215,0.39-0.351
				c0.112-0.133,0.194-0.266,0.25-0.396c0.055-0.132,0.06-0.247,0.017-0.347c-0.048-0.085-0.16-0.106-0.337-0.071
				c-0.178,0.037-0.367,0.124-0.567,0.253c-0.201,0.132-0.406,0.298-0.612,0.499c-0.206,0.202-0.371,0.423-0.497,0.661
				c-0.27,0.458-0.374,0.809-0.313,1.058c0.064,0.251,0.258,0.443,0.584,0.576c0.448,0.182,0.89,0.282,1.324,0.298
				c0.434,0.017,0.845-0.009,1.231-0.076c0.387-0.068,0.738-0.152,1.055-0.253c0.318-0.104,0.576-0.202,0.78-0.295
				c0.05-0.024,0.116-0.034,0.194-0.034C171.415,68.918,171.482,68.943,171.538,68.993z"/>
			<path fill="#773311" d="M176.38,66.75c0.098,0.061,0.177,0.125,0.238,0.194c0.061,0.069,0.136,0.16,0.219,0.27
				c0.095,0.169,0.149,0.356,0.165,0.568c0.016,0.212,0.003,0.42-0.036,0.625c-0.04,0.207-0.098,0.4-0.176,0.58
				c-0.077,0.178-0.153,0.322-0.225,0.43c0.144,0.053,0.302,0.101,0.471,0.144c0.148,0.036,0.325,0.067,0.533,0.09
				c0.206,0.023,0.438,0.021,0.692-0.007c0.156,0.003,0.265,0.02,0.323,0.053c0.033,0.045,0.036,0.13,0.004,0.257
				c-0.031,0.128-0.11,0.221-0.237,0.279c-0.271,0.096-0.564,0.15-0.882,0.162c-0.342,0.024-0.704-0.011-1.084-0.105
				c-0.149-0.036-0.251-0.07-0.311-0.102l-0.089,0.085c-0.029,0.031-0.061,0.064-0.092,0.1c-0.032,0.037-0.065,0.08-0.098,0.125
				c-0.156,0.177-0.387,0.395-0.698,0.652c-0.311,0.257-0.674,0.487-1.096,0.69c-0.419,0.202-0.886,0.341-1.397,0.412
				c-0.511,0.073-1.058,0.011-1.638-0.185c-0.533-0.205-0.858-0.503-0.975-0.902c-0.113-0.396-0.086-0.822,0.08-1.277
				c0.168-0.455,0.436-0.907,0.804-1.356c0.37-0.451,0.782-0.826,1.237-1.128c0.161-0.106,0.331-0.209,0.512-0.307
				c0.181-0.098,0.374-0.196,0.577-0.291c0.148-0.052,0.333-0.103,0.557-0.146c0.225-0.043,0.396,0.012,0.513,0.168
				c0.076,0.055,0.114,0.105,0.116,0.15c0,0.044-0.004,0.084-0.012,0.118c0.383-0.466,0.844-0.648,1.381-0.553l0.222,0.055
				C176.148,66.64,176.281,66.691,176.38,66.75z M174.468,69.74c0.076-0.036,0.116-0.06,0.12-0.077
				c-0.114-0.082-0.214-0.178-0.299-0.29c-0.09-0.094-0.169-0.208-0.236-0.342c-0.068-0.134-0.113-0.293-0.134-0.479
				c-0.001-0.09,0-0.189,0.005-0.297c0.004-0.106,0.021-0.22,0.049-0.338c-0.009-0.056,0.02-0.131,0.089-0.222
				c0.02-0.085,0.049-0.16,0.085-0.222c0.039-0.062,0.078-0.133,0.121-0.214c-0.064,0.076-0.186,0.162-0.366,0.262
				c-0.089,0.086-0.188,0.162-0.293,0.226c-0.084,0.071-0.182,0.145-0.291,0.226c-0.108,0.08-0.207,0.164-0.297,0.25
				c-0.118,0.116-0.243,0.255-0.372,0.423c-0.132,0.165-0.267,0.357-0.411,0.575c-0.173,0.246-0.303,0.506-0.394,0.781
				c-0.09,0.274,0.007,0.474,0.291,0.597c0.182,0.081,0.406,0.081,0.673,0.004c0.266-0.08,0.501-0.176,0.709-0.285
				C173.767,70.216,174.082,70.023,174.468,69.74z M175.454,68.739c0.223-0.27,0.349-0.553,0.378-0.851
				c0.028-0.301-0.045-0.462-0.217-0.487c-0.174-0.025-0.311,0.05-0.41,0.223c-0.098,0.174-0.148,0.351-0.146,0.531
				c-0.013,0.142,0.053,0.285,0.198,0.428C175.329,68.655,175.395,68.707,175.454,68.739z"/>
		</g>
		<g>
			<path fill="#773311" d="M196.403,58.269c0.08,0.128,0.076,0.303-0.015,0.525c-0.088,0.22-0.302,0.468-0.641,0.744
				c-0.415,0.311-0.921,0.624-1.519,0.944c-0.597,0.318-1.249,0.592-1.957,0.822c-0.71,0.226-1.459,0.367-2.247,0.422
				c-0.789,0.055-1.6-0.051-2.435-0.314c-0.689-0.118-1.26-0.462-1.712-1.026c-0.455-0.564-0.71-1.269-0.769-2.114
				c-0.057-0.843,0.133-1.782,0.573-2.816c0.439-1.035,1.227-2.069,2.361-3.101c-0.664,0.14-1.346,0.289-2.05,0.447
				c-0.701,0.156-1.374,0.262-2.018,0.318c-0.642,0.053-1.229,0.02-1.759-0.105c-0.531-0.124-0.96-0.39-1.284-0.794
				c-0.219-0.291-0.337-0.589-0.348-0.899c-0.024-0.258,0.047-0.544,0.215-0.854c0.168-0.309,0.533-0.601,1.096-0.874
				c0.076-0.035,0.169-0.052,0.281-0.051c0.113,0.001,0.198,0.064,0.257,0.186c0.017,0.113,0.056,0.229,0.114,0.353
				c0.058,0.122,0.161,0.235,0.303,0.335c0.144,0.098,0.343,0.184,0.593,0.255c0.251,0.072,0.567,0.11,0.949,0.116
				c0.524-0.031,1.08-0.052,1.668-0.066c0.521-0.013,1.098-0.004,1.729,0.028c0.633,0.033,1.276,0.088,1.932,0.161
				c0.851-0.616,1.665-1.043,2.446-1.28c0.777-0.238,1.481-0.359,2.111-0.363c0.631-0.003,1.173,0.074,1.628,0.233
				c0.454,0.16,0.785,0.319,0.991,0.48c0.317,0.259,0.527,0.591,0.627,0.994c0.101,0.406,0.096,0.828-0.015,1.268
				c0.263-0.239,0.52-0.482,0.772-0.724c0.253-0.243,0.485-0.452,0.696-0.623c0.213-0.173,0.402-0.303,0.569-0.387
				c0.166-0.084,0.31-0.092,0.428-0.028c0.233,0.15,0.387,0.333,0.468,0.551c0.068,0.18,0.065,0.414-0.008,0.702
				c-0.073,0.289-0.303,0.627-0.693,1.016c-0.331,0.331-0.7,0.64-1.108,0.926c-0.41,0.285-0.843,0.54-1.306,0.766
				c-0.462,0.228-0.925,0.418-1.392,0.572c-0.464,0.153-0.905,0.259-1.325,0.317c-0.458,0.029-0.784-0.012-0.979-0.124
				c-0.198-0.113-0.335-0.234-0.416-0.363c-0.074-0.145-0.098-0.322-0.068-0.531c0.034-0.226,0.028-0.426-0.019-0.6
				c-0.025-0.078-0.052-0.148-0.081-0.21c0.004-0.106-0.133-0.275-0.411-0.508c-0.279-0.233-0.689-0.436-1.23-0.607
				c-0.225-0.001-0.523,0.174-0.893,0.533c-0.371,0.358-0.741,0.806-1.114,1.345c-0.37,0.537-0.696,1.117-0.978,1.741
				c-0.279,0.624-0.427,1.213-0.443,1.768c-0.015,0.556,0.142,1.028,0.469,1.417c0.33,0.39,0.917,0.608,1.757,0.657
				c0.555,0.031,1.096,0.001,1.624-0.092c0.528-0.093,1.026-0.215,1.493-0.37c0.463-0.153,0.887-0.318,1.269-0.492
				s0.689-0.331,0.927-0.471c0.152-0.069,0.321-0.136,0.504-0.198C196.21,58.167,196.337,58.181,196.403,58.269z M196.232,50.893
				c-0.241-0.204-0.547-0.326-0.918-0.364c-0.306-0.041-0.692,0.001-1.163,0.128c-0.47,0.125-1.019,0.416-1.651,0.87
				c0.592,0.239,1.083,0.541,1.474,0.911c0.391,0.369,0.573,0.83,0.547,1.381c0.144-0.035,0.298-0.069,0.463-0.1
				c0.144-0.036,0.309-0.085,0.491-0.148c0.185-0.061,0.383-0.156,0.593-0.282c0.085-0.16,0.166-0.347,0.244-0.563
				c0.077-0.216,0.13-0.431,0.162-0.648c0.033-0.218,0.036-0.434,0.012-0.647C196.461,51.218,196.375,51.038,196.232,50.893z"/>
			<path fill="#773311" d="M198.075,60.934c-0.062-0.016-0.172-0.056-0.323-0.122c-0.153-0.064-0.305-0.153-0.456-0.263
				c-0.153-0.11-0.303-0.252-0.448-0.424c-0.15-0.172-0.241-0.371-0.273-0.595c-0.043-0.191-0.037-0.398,0.02-0.618
				c0.055-0.22,0.138-0.438,0.247-0.653c0.112-0.217,0.23-0.42,0.357-0.615c0.128-0.193,0.242-0.358,0.344-0.496
				c0.037-0.061,0.174-0.247,0.408-0.559c0.237-0.31,0.527-0.68,0.869-1.107c0.344-0.428,0.728-0.882,1.151-1.361
				c0.424-0.48,0.854-0.919,1.29-1.313c0.436-0.395,0.859-0.718,1.27-0.967c0.41-0.249,0.773-0.37,1.086-0.363
				c0.021,0.005,0.056,0.005,0.101-0.001c0.044,0.011,0.092,0.019,0.148,0.023c0.053,0.005,0.124,0.017,0.209,0.039
				c0.148,0.037,0.314,0.09,0.501,0.153c0.185,0.065,0.358,0.16,0.519,0.281c0.161,0.121,0.297,0.271,0.41,0.454
				c0.109,0.182,0.154,0.404,0.134,0.671l-0.013,0.05c-0.008,0.035-0.027,0.057-0.051,0.068c-0.05,0.024-0.093,0.032-0.124,0.024
				c-0.031-0.008-0.072-0.008-0.117-0.003c-0.246-0.008-0.576,0.102-0.994,0.331c-0.416,0.23-0.886,0.549-1.405,0.962
				c-0.519,0.409-1.066,0.893-1.646,1.451c-0.579,0.559-1.151,1.163-1.719,1.813c0.109-0.079,0.343-0.229,0.701-0.444
				c0.358-0.218,0.766-0.431,1.223-0.641c0.456-0.209,0.946-0.384,1.463-0.524c0.517-0.141,0.992-0.176,1.425-0.104
				c0.283,0.036,0.535,0.108,0.754,0.218c0.182,0.081,0.344,0.193,0.49,0.339c0.144,0.142,0.205,0.339,0.189,0.588
				c-0.035,0.225-0.224,0.503-0.564,0.833c-0.341,0.329-0.665,0.706-0.974,1.135c-0.341,0.455-0.572,0.923-0.692,1.409
				c-0.121,0.483-0.081,0.903,0.12,1.261c0.029,0.061,0.052,0.132,0.068,0.205c0.015,0.076-0.036,0.117-0.15,0.125
				c-0.134,0.001-0.298,0.003-0.488,0c-0.192-0.003-0.396-0.028-0.621-0.076c-0.225-0.047-0.458-0.12-0.704-0.217
				c-0.246-0.097-0.48-0.238-0.705-0.42c-0.092-0.078-0.141-0.153-0.144-0.226c-0.005-0.072-0.013-0.128-0.027-0.168
				c0.017-0.158,0.064-0.363,0.138-0.613c0.074-0.254,0.198-0.548,0.372-0.883c0.174-0.334,0.407-0.702,0.701-1.108
				c0.293-0.404,0.684-0.825,1.173-1.26c0.057-0.041,0.09-0.085,0.102-0.137c0.021-0.085-0.08-0.129-0.302-0.132
				c-0.093,0.013-0.313,0.077-0.655,0.189c-0.345,0.11-0.746,0.303-1.208,0.576c-0.46,0.271-0.929,0.637-1.403,1.095
				c-0.475,0.458-0.887,1.03-1.24,1.717C198.455,60.903,198.274,61.037,198.075,60.934z"/>
			<path fill="#773311" d="M210.913,57.259c0.097,0.061,0.177,0.126,0.239,0.196c0.061,0.069,0.13,0.161,0.217,0.271
				c0.093,0.168,0.146,0.357,0.161,0.569c0.013,0.209,0.001,0.418-0.039,0.625c-0.041,0.206-0.1,0.398-0.18,0.577
				c-0.08,0.18-0.154,0.322-0.225,0.428c0.142,0.055,0.299,0.104,0.469,0.146c0.146,0.036,0.323,0.066,0.532,0.092
				c0.206,0.025,0.436,0.025,0.69-0.001c0.157,0.003,0.266,0.021,0.325,0.053c0.033,0.045,0.034,0.132,0.003,0.259
				c-0.032,0.126-0.112,0.219-0.239,0.278c-0.271,0.093-0.564,0.146-0.882,0.157c-0.342,0.023-0.704-0.013-1.084-0.11
				c-0.148-0.037-0.251-0.072-0.311-0.105L210.5,60.78c-0.029,0.029-0.061,0.062-0.092,0.1c-0.032,0.037-0.065,0.079-0.098,0.124
				c-0.157,0.177-0.391,0.394-0.702,0.649c-0.313,0.255-0.676,0.483-1.099,0.685c-0.42,0.2-0.889,0.335-1.4,0.406
				c-0.512,0.071-1.058,0.005-1.636-0.196c-0.533-0.206-0.857-0.507-0.97-0.906c-0.113-0.398-0.085-0.823,0.085-1.277
				c0.17-0.454,0.442-0.905,0.812-1.352c0.37-0.448,0.783-0.823,1.242-1.122c0.161-0.105,0.331-0.206,0.515-0.306
				c0.181-0.096,0.374-0.193,0.577-0.286c0.149-0.052,0.333-0.101,0.559-0.144c0.225-0.044,0.395,0.013,0.514,0.169
				c0.074,0.056,0.113,0.106,0.113,0.15c0,0.045-0.004,0.085-0.013,0.12c0.386-0.463,0.847-0.644,1.385-0.545l0.222,0.055
				C210.683,57.147,210.816,57.199,210.913,57.259z M208.985,60.239c0.077-0.035,0.116-0.061,0.12-0.078
				c-0.112-0.082-0.212-0.18-0.297-0.291c-0.089-0.094-0.168-0.209-0.235-0.342c-0.067-0.134-0.109-0.294-0.129-0.482
				c-0.001-0.088,0.001-0.186,0.007-0.294c0.004-0.108,0.02-0.221,0.051-0.341c-0.009-0.054,0.021-0.128,0.088-0.219
				c0.021-0.085,0.051-0.158,0.089-0.222c0.039-0.061,0.078-0.132,0.121-0.213c-0.064,0.076-0.188,0.161-0.367,0.261
				c-0.089,0.085-0.188,0.16-0.293,0.225c-0.085,0.066-0.184,0.141-0.293,0.223c-0.11,0.08-0.209,0.162-0.298,0.249
				c-0.12,0.116-0.245,0.253-0.375,0.42c-0.13,0.165-0.27,0.356-0.414,0.572c-0.174,0.246-0.307,0.504-0.396,0.78
				c-0.092,0.274,0.001,0.474,0.286,0.599c0.182,0.082,0.406,0.084,0.673,0.008c0.266-0.078,0.503-0.172,0.71-0.282
				C208.283,60.711,208.599,60.519,208.985,60.239z M209.976,59.242c0.225-0.267,0.353-0.551,0.383-0.849
				c0.029-0.301-0.041-0.463-0.215-0.488c-0.174-0.025-0.31,0.049-0.409,0.221c-0.101,0.174-0.15,0.35-0.152,0.531
				c-0.012,0.142,0.053,0.285,0.198,0.427C209.853,59.157,209.916,59.209,209.976,59.242z"/>
			<path fill="#773311" d="M218.566,62.617c0.101,0.133,0.055,0.274-0.141,0.423c-0.197,0.166-0.495,0.386-0.887,0.656
				c-0.395,0.273-0.865,0.506-1.407,0.702c-0.544,0.197-1.163,0.309-1.854,0.334c-0.692,0.023-1.433-0.126-2.228-0.452
				c-0.612-0.245-0.98-0.575-1.1-0.994c-0.118-0.418-0.085-0.859,0.097-1.328c0.186-0.467,0.49-0.914,0.911-1.342
				c0.422-0.424,0.869-0.776,1.344-1.054c0.287-0.162,0.604-0.303,0.948-0.424c0.345-0.121,0.697-0.201,1.054-0.237
				c0.359-0.036,0.708-0.017,1.048,0.06c0.338,0.077,0.649,0.231,0.927,0.464c0.279,0.23,0.385,0.506,0.317,0.822
				c-0.068,0.318-0.235,0.619-0.496,0.903c-0.263,0.287-0.591,0.533-0.979,0.742s-0.753,0.315-1.091,0.321
				c-0.365,0.017-0.619-0.005-0.758-0.069c-0.141-0.063-0.236-0.134-0.283-0.218l-0.024-0.033c-0.056-0.14-0.028-0.27,0.079-0.387
				c0.109-0.117,0.266-0.221,0.468-0.315c0.096-0.029,0.219-0.093,0.368-0.192c0.148-0.098,0.278-0.214,0.39-0.348
				c0.113-0.134,0.196-0.266,0.253-0.396c0.055-0.132,0.061-0.246,0.019-0.346c-0.047-0.084-0.158-0.108-0.337-0.072
				c-0.177,0.037-0.366,0.121-0.568,0.249c-0.201,0.13-0.406,0.297-0.613,0.497c-0.208,0.198-0.374,0.419-0.501,0.659
				c-0.273,0.454-0.378,0.805-0.317,1.055c0.061,0.251,0.255,0.442,0.579,0.579c0.45,0.185,0.89,0.287,1.324,0.305
				c0.434,0.02,0.843-0.004,1.232-0.069c0.386-0.065,0.738-0.149,1.055-0.247c0.318-0.101,0.579-0.198,0.781-0.291
				c0.052-0.024,0.116-0.034,0.196-0.033C218.445,62.541,218.511,62.567,218.566,62.617z"/>
			<path fill="#773311" d="M223.443,60.406c0.098,0.06,0.177,0.125,0.239,0.194c0.061,0.069,0.132,0.16,0.218,0.271
				c0.092,0.169,0.145,0.358,0.16,0.568c0.013,0.21,0,0.419-0.039,0.625c-0.041,0.207-0.102,0.399-0.18,0.577
				c-0.079,0.178-0.153,0.323-0.225,0.431c0.144,0.055,0.298,0.102,0.469,0.145c0.146,0.036,0.325,0.068,0.532,0.093
				c0.206,0.025,0.438,0.024,0.69-0.003c0.157,0.004,0.266,0.023,0.325,0.055c0.033,0.044,0.034,0.13,0.003,0.258
				c-0.032,0.126-0.112,0.22-0.239,0.278c-0.271,0.094-0.564,0.146-0.882,0.156c-0.342,0.023-0.704-0.013-1.084-0.108
				c-0.148-0.037-0.252-0.072-0.311-0.105l-0.088,0.085c-0.029,0.027-0.061,0.06-0.093,0.098c-0.032,0.036-0.065,0.077-0.098,0.122
				c-0.157,0.178-0.391,0.395-0.702,0.649c-0.313,0.257-0.676,0.484-1.099,0.686c-0.42,0.2-0.887,0.335-1.4,0.404
				c-0.512,0.071-1.058,0.005-1.636-0.196c-0.532-0.204-0.857-0.507-0.97-0.905c-0.113-0.399-0.084-0.823,0.085-1.277
				c0.17-0.454,0.442-0.905,0.812-1.352c0.37-0.45,0.783-0.822,1.244-1.124c0.158-0.101,0.33-0.202,0.512-0.302
				c0.183-0.098,0.375-0.194,0.579-0.289c0.149-0.052,0.334-0.098,0.559-0.142c0.225-0.044,0.396,0.015,0.513,0.169
				c0.074,0.055,0.113,0.105,0.113,0.149c0,0.047-0.004,0.087-0.013,0.12c0.387-0.462,0.847-0.644,1.385-0.544l0.222,0.055
				C223.214,60.295,223.346,60.345,223.443,60.406z M221.515,63.385c0.077-0.036,0.117-0.062,0.121-0.08
				c-0.113-0.081-0.213-0.177-0.298-0.29c-0.089-0.093-0.168-0.207-0.234-0.343c-0.066-0.134-0.11-0.293-0.132-0.479
				c0-0.09,0.001-0.189,0.008-0.297c0.004-0.108,0.02-0.219,0.05-0.339c-0.009-0.055,0.021-0.129,0.089-0.221
				c0.021-0.084,0.05-0.158,0.088-0.221c0.039-0.061,0.08-0.132,0.121-0.212c-0.064,0.074-0.186,0.16-0.367,0.258
				c-0.089,0.085-0.188,0.161-0.293,0.225c-0.085,0.068-0.182,0.144-0.293,0.223c-0.11,0.081-0.209,0.162-0.298,0.25
				c-0.12,0.114-0.245,0.254-0.375,0.42c-0.13,0.165-0.27,0.356-0.414,0.572c-0.176,0.245-0.306,0.504-0.396,0.78
				c-0.093,0.273,0.003,0.475,0.286,0.599c0.182,0.082,0.407,0.085,0.673,0.008c0.266-0.079,0.503-0.173,0.71-0.282
				C220.813,63.856,221.129,63.666,221.515,63.385z M222.506,62.39c0.225-0.27,0.353-0.553,0.383-0.851
				c0.029-0.301-0.041-0.46-0.215-0.488c-0.173-0.024-0.31,0.05-0.409,0.222c-0.101,0.174-0.15,0.351-0.152,0.531
				c-0.012,0.141,0.053,0.285,0.198,0.428C222.384,62.303,222.448,62.356,222.506,62.39z"/>
		</g>
	</g>
</g>
</svg>
