<?xml version="1.0" encoding="utf-8"?>
<!-- Generator: Adobe Illustrator 22.1.0, SVG Export Plug-In . SVG Version: 6.00 Build 0)  -->
<svg version="1.1" id="Calque_1" xmlns="http://www.w3.org/2000/svg" xmlns:xlink="http://www.w3.org/1999/xlink" x="0px" y="0px"
	 viewBox="0 0 264 258" enable-background="new 0 0 264 258" xml:space="preserve">
<g>
	<path fill="#FBC727" d="M72.026,22.702c-1.913-0.101-2.413-2.69-0.676-3.5c22.643-10.56,98.105-38.141,151.463,32.738
		c30.285,40.229,30.363,90.25,10.416,129.728c-18.47,36.554-58.642,66.487-97.533,68.178
		c-65.337,2.841-101.32-34.089-120.107-73.047c-0.907-1.881,1.234-3.815,3.111-2.901c17.309,8.433,65.862,38.071,116.995,7.77
		c48.201-28.564,48.293-93.745,8.522-130.675C119.276,27.833,86.459,23.461,72.026,22.702z"/>
	<path fill="#FBBE12" d="M135.696,181.668c48.201-28.564,48.293-93.745,8.522-130.675C119.34,27.892,86.633,23.485,72.142,22.709
		c0.066-0.073,0.111-0.123,0.111-0.123s71.019-21.779,110.789,43.558c39.771,65.337,0,119.312-31.248,133.515
		c-31.248,14.204-93.745,22.726-133.515-25.567c-0.111-0.135-0.207-0.275-0.315-0.411c0.246,0.029,0.494,0.098,0.738,0.216
		C36.01,182.331,84.563,211.969,135.696,181.668z"/>
	<path fill="#FBBA0D" d="M18.278,174.093c0,0,49.24,94.692,140.144,55.868c90.904-38.824,83.329-124.993,71.019-150.56
		C217.295,54.174,167.348-12.527,75.06,17.537c26.289-11.366,97.013-32.998,147.753,34.403
		c30.285,40.229,30.363,90.25,10.416,129.728c-18.47,36.554-58.642,66.487-97.533,68.178
		c-64.009,2.783-99.842-32.605-118.937-70.675C17.715,175.972,18.278,174.093,18.278,174.093z"/>
	<path fill="#FCD668" d="M232.755,152.787c3.048,1.385-4.261,24.146-8.996,21.779C219.025,172.199,227.547,150.42,232.755,152.787z"
		/>
	<path fill="#FCD668" d="M161.046,228.487c-1.812-4.374,33.473-27.057,36.244-21.342
		C200.062,212.861,163.807,235.15,161.046,228.487z"/>
	<path fill="#FCD668" d="M223.759,68.511c4.655-1.662,19.706,32.285,12.31,35.983C231.335,106.861,217.131,70.878,223.759,68.511z"
		/>
	<path fill="#F9ED6E" d="M205.878,7.683c-2.938-2.497-7.531,6.883-10.765,5.684c-3.424-1.27-6.992-6.187-9.004-4.477
		c-2.25,1.912,2.225,7.895,1.441,10.09c-0.82,2.297-8.049,6.841-7.046,8.741c1.003,1.9,9.605-0.213,11.614,0.832
		c2.009,1.044,2.787,9.699,5.536,9.871c3.016,0.189,3.362-10.197,4.889-10.679c1.527-0.482,9.084-0.586,9.682-2.521
		c0.598-1.935-8.445-5.258-8.481-6.859C203.709,16.764,207.83,9.342,205.878,7.683z"/>
	<path fill="#F9ED6E" d="M154.569,16.461c-2.554-0.993-3.453,6.375-5.904,6.322c-2.594-0.055-6.134-2.526-7.087-0.909
		c-1.065,1.808,3.331,4.782,3.316,6.439c-0.016,1.733-3.811,6.467-2.695,7.509c1.116,1.042,6.399-2.379,7.991-2.145
		c1.592,0.233,4.129,5.862,6.014,5.338c2.068-0.575-0.117-7.628,0.796-8.307c0.913-0.679,5.962-2.508,5.913-3.947
		c-0.049-1.438-6.894-1.564-7.29-2.631C155.228,23.063,156.266,17.121,154.569,16.461z"/>
	<path fill="#FFD523" d="M119.617,77.511c-4.55-1.266-4.833,11.521-9.044,11.85c-4.457,0.349-10.951-3.283-12.309-0.349
		c-1.517,3.282,6.531,7.631,6.787,10.475c0.269,2.974-5.43,11.74-3.339,13.336c2.091,1.596,10.566-5.173,13.336-5.045
		c2.77,0.128,8.082,9.348,11.226,8.126c3.449-1.339-1.504-13.061-0.055-14.382c1.449-1.321,9.796-5.32,9.465-7.778
		c-0.33-2.458-12.089-1.504-12.951-3.265C121.873,88.72,122.639,78.352,119.617,77.511z"/>
	<path fill="#F9ED6E" d="M107.658,205.387c-2.938-2.498-7.531,6.883-10.765,5.684c-3.424-1.27-6.992-6.187-9.004-4.477
		c-2.25,1.912,2.225,7.895,1.441,10.09c-0.82,2.297-8.049,6.841-7.045,8.741c1.003,1.9,9.605-0.213,11.614,0.832
		c2.009,1.045,2.787,9.699,5.537,9.871c3.015,0.189,3.362-10.197,4.888-10.679c1.527-0.482,9.084-0.586,9.682-2.521
		c0.598-1.935-8.445-5.258-8.481-6.859C105.489,214.468,109.61,207.046,107.658,205.387z"/>
	<path fill="#F9ED6E" d="M49.935,204.547c-2.554-0.993-3.453,6.374-5.904,6.322c-2.594-0.055-6.135-2.526-7.087-0.909
		c-1.065,1.807,3.332,4.782,3.316,6.439c-0.016,1.733-3.811,6.466-2.695,7.508c1.116,1.042,6.399-2.379,7.991-2.145
		c1.592,0.233,4.129,5.862,6.015,5.338c2.068-0.575-0.117-7.628,0.796-8.308c0.912-0.679,5.962-2.508,5.913-3.946
		c-0.049-1.438-6.893-1.564-7.29-2.631C50.593,211.149,51.632,205.207,49.935,204.547z"/>
</g>
</svg>
